<svg width="89" height="89" viewBox="0 0 89 89" fill="none" xmlns="http://www.w3.org/2000/svg">
<g filter="url(#filter0_d_3696_23215)">
<path d="M12 15.1231C12 10.6368 15.6368 7 20.1231 7H68.8617C73.348 7 76.9848 10.6368 76.9848 15.1231V63.8617C76.9848 68.348 73.348 71.9848 68.8617 71.9848H20.1231C15.6368 71.9848 12 68.348 12 63.8617V15.1231Z" fill="white" shape-rendering="crispEdges"/>
<g clip-path="url(#clip0_3696_23215)">
<path d="M22.1523 17.4922H66.1523V61.4922H22.1523V17.4922Z" fill="#006B3F"/>
<path d="M22.1523 17.4922H66.1523V46.8227H22.1523V17.4922Z" fill="#FCD116"/>
<path d="M22.1523 17.4922H66.1523V32.1617H22.1523V17.4922Z" fill="#CE1126"/>
<path d="M44.1539 32.1621L48.9234 46.823L36.4453 37.7738H51.8625L39.393 46.823L44.1539 32.1621Z" fill="black"/>
</g>
</g>
<defs>
<filter id="filter0_d_3696_23215" x="0" y="0" width="88.9844" height="88.9844" filterUnits="userSpaceOnUse" color-interpolation-filters="sRGB">
<feFlood flood-opacity="0" result="BackgroundImageFix"/>
<feColorMatrix in="SourceAlpha" type="matrix" values="0 0 0 0 0 0 0 0 0 0 0 0 0 0 0 0 0 0 127 0" result="hardAlpha"/>
<feOffset dy="5"/>
<feGaussianBlur stdDeviation="6"/>
<feComposite in2="hardAlpha" operator="out"/>
<feColorMatrix type="matrix" values="0 0 0 0 0 0 0 0 0 0 0 0 0 0 0 0 0 0 0.1 0"/>
<feBlend mode="normal" in2="BackgroundImageFix" result="effect1_dropShadow_3696_23215"/>
<feBlend mode="normal" in="SourceGraphic" in2="effect1_dropShadow_3696_23215" result="shape"/>
</filter>
<clipPath id="clip0_3696_23215">
<rect x="22.1523" y="17.4922" width="44" height="44" rx="22" fill="white"/>
</clipPath>
</defs>
</svg>
