<svg width="178" height="112" viewBox="0 0 178 112" fill="none" xmlns="http://www.w3.org/2000/svg">
<g filter="url(#filter0_d_3489_23355)">
<rect x="16" y="0.423828" width="158.313" height="97.6928" rx="7.70952" fill="white" shape-rendering="crispEdges"/>
<rect x="15.788" y="0.211816" width="158.737" height="98.1169" rx="7.92153" stroke="black" stroke-opacity="0.06" stroke-width="0.424023" shape-rendering="crispEdges"/>
<path d="M16.5 76.534L16.5 69.334H30V94.534C23.4131 100.389 10.8746 101.483 6.42001 101.687C5.86724 101.712 5.58364 101.018 5.9738 100.625C8.93964 97.6426 16.5 88.833 16.5 76.534Z" fill="white"/>
<mask id="mask0_3489_23355" style="mask-type:alpha" maskUnits="userSpaceOnUse" x="3" y="72" width="25" height="34">
<path d="M3.00098 105.334H27.3008V100.199C23.2213 98.0036 19.9039 94.6145 17.7969 90.4795C15.7737 86.5088 15.3987 81.5381 15.3291 72.9336H3.00098V105.334Z" fill="#8B1A1A"/>
</mask>
<g mask="url(#mask0_3489_23355)">
<path d="M16.5 76.534L16.5 69.334H30V94.534C23.4131 100.389 10.8746 101.483 6.42001 101.687C5.86724 101.712 5.58364 101.018 5.9738 100.625C8.93964 97.6426 16.5 88.833 16.5 76.534Z" fill="white"/>
<path d="M15.9062 68.7402V76.5342C15.9062 88.5934 8.48428 97.2577 5.55273 100.206C4.81661 100.946 5.30302 102.333 6.44727 102.28C8.6935 102.177 12.9807 101.85 17.543 100.809C22.0905 99.7702 26.989 98.0047 30.3945 94.9775L30.5938 94.8008V68.7402H15.9062Z" stroke="black" stroke-opacity="0.06" stroke-width="1.188"/>
</g>
<path d="M28.286 23.666V16.2649H31.2104C31.2824 16.2649 31.3681 16.2683 31.4674 16.2752C31.5668 16.2786 31.6627 16.2889 31.7552 16.306C32.1561 16.3677 32.4919 16.5047 32.7626 16.7172C33.0367 16.9296 33.2423 17.1986 33.3794 17.5241C33.5164 17.8462 33.585 18.2043 33.585 18.5983C33.585 18.9889 33.5147 19.347 33.3742 19.6725C33.2372 19.9946 33.0316 20.2635 32.7575 20.4794C32.4868 20.6919 32.1527 20.8289 31.7552 20.8906C31.6627 20.9043 31.5668 20.9146 31.4674 20.9214C31.3681 20.9283 31.2824 20.9317 31.2104 20.9317H29.2008V23.666H28.286ZM29.2008 20.0631H31.1796C31.2447 20.0631 31.3184 20.0597 31.4006 20.0528C31.4863 20.046 31.5668 20.034 31.6422 20.0168C31.8786 19.962 32.0705 19.8627 32.2178 19.7187C32.3686 19.5714 32.4782 19.4001 32.5468 19.2048C32.6153 19.006 32.6495 18.8039 32.6495 18.5983C32.6495 18.3927 32.6153 18.1923 32.5468 17.997C32.4782 17.7982 32.3686 17.6252 32.2178 17.4778C32.0705 17.3305 31.8786 17.2311 31.6422 17.1797C31.5668 17.1592 31.4863 17.1472 31.4006 17.1438C31.3184 17.1369 31.2447 17.1335 31.1796 17.1335H29.2008V20.0631ZM35.9772 23.8202C35.5626 23.8202 35.2149 23.7448 34.9339 23.5941C34.6564 23.4399 34.4456 23.2377 34.3017 22.9876C34.1612 22.7374 34.091 22.4633 34.091 22.1652C34.091 21.874 34.1458 21.6221 34.2555 21.4097C34.3685 21.1938 34.5261 21.0157 34.7283 20.8752C34.9305 20.7313 35.172 20.6182 35.453 20.536C35.7168 20.464 36.0115 20.4023 36.337 20.3509C36.666 20.2961 36.9983 20.2464 37.3341 20.2019C37.6699 20.1573 37.9834 20.1145 38.2747 20.0734L37.9457 20.2635C37.956 19.7701 37.8567 19.4052 37.6476 19.1688C37.4421 18.9324 37.0857 18.8142 36.5786 18.8142C36.2428 18.8142 35.9481 18.8913 35.6946 19.0454C35.4444 19.1962 35.268 19.4429 35.1652 19.7856L34.2966 19.5234C34.4302 19.0369 34.6889 18.6548 35.0727 18.3773C35.4564 18.0997 35.9618 17.961 36.5889 17.961C37.0926 17.961 37.5243 18.0518 37.8841 18.2334C38.2473 18.4116 38.5077 18.6822 38.6653 19.0454C38.7441 19.2168 38.7938 19.4035 38.8144 19.6057C38.8349 19.8044 38.8452 20.0134 38.8452 20.2327V23.666H38.0331V22.3348L38.2233 22.4582C38.0143 22.9071 37.7213 23.2463 37.3444 23.4758C36.9709 23.7054 36.5152 23.8202 35.9772 23.8202ZM36.116 23.0544C36.445 23.0544 36.7294 22.9961 36.9692 22.8796C37.2125 22.7597 37.4078 22.6038 37.5551 22.4119C37.7025 22.2166 37.7984 22.0042 37.843 21.7746C37.8943 21.6033 37.9218 21.4131 37.9252 21.2041C37.932 20.9917 37.9355 20.8289 37.9355 20.7158L38.2541 20.8546C37.956 20.8957 37.6631 20.9351 37.3752 20.9728C37.0874 21.0105 36.815 21.0516 36.558 21.0962C36.301 21.1373 36.0698 21.187 35.8642 21.2452C35.7134 21.2932 35.5712 21.3549 35.4376 21.4303C35.3074 21.5056 35.2012 21.6033 35.1189 21.7232C35.0401 21.8397 35.0007 21.9853 35.0007 22.1601C35.0007 22.3109 35.0384 22.4548 35.1138 22.5918C35.1926 22.7289 35.3125 22.8402 35.4736 22.9259C35.638 23.0116 35.8522 23.0544 36.116 23.0544ZM40.6413 26.1331L41.7155 23.2137L41.7309 24.0772L39.305 18.1152H40.2661L42.1678 22.9105H41.8388L43.6223 18.1152H44.5526L41.5304 26.1331H40.6413ZM52.0368 23.666L52.042 20.1145C52.042 19.6999 51.9306 19.3761 51.7079 19.1431C51.4886 18.9067 51.2025 18.7885 50.8496 18.7885C50.644 18.7885 50.4487 18.8364 50.2636 18.9324C50.0786 19.0249 49.9278 19.1722 49.8113 19.3744C49.6948 19.5731 49.6366 19.8284 49.6366 20.1402L49.1535 19.9449C49.1466 19.5508 49.2271 19.2065 49.395 18.9118C49.5663 18.6137 49.7993 18.3824 50.094 18.218C50.3887 18.0535 50.7211 17.9713 51.0911 17.9713C51.6702 17.9713 52.1259 18.1477 52.4583 18.5006C52.7906 18.8501 52.9568 19.3213 52.9568 19.9141L52.9517 23.666H52.0368ZM45.3964 23.666V18.1152H46.2136V19.6005H46.3164V23.666H45.3964ZM48.7217 23.666L48.7269 20.1505C48.7269 19.7256 48.6172 19.3932 48.3979 19.1534C48.1786 18.9101 47.8874 18.7885 47.5242 18.7885C47.1644 18.7885 46.8732 18.9118 46.6504 19.1585C46.4277 19.4052 46.3164 19.7324 46.3164 20.1402L45.8332 19.8524C45.8332 19.4926 45.9189 19.1705 46.0902 18.8861C46.2615 18.6017 46.4945 18.379 46.7892 18.218C47.0839 18.0535 47.418 17.9713 47.7914 17.9713C48.1649 17.9713 48.4904 18.0501 48.768 18.2077C49.0455 18.3653 49.2597 18.5914 49.4104 18.8861C49.5612 19.1774 49.6366 19.5251 49.6366 19.9295L49.6314 23.666H48.7217ZM56.6507 23.8202C56.1059 23.8202 55.6296 23.7003 55.2219 23.4604C54.8176 23.2172 54.5023 22.8796 54.2762 22.4479C54.05 22.0128 53.937 21.5056 53.937 20.9266C53.937 20.3201 54.0483 19.7958 54.2711 19.3538C54.4938 18.9084 54.8039 18.5657 55.2013 18.3259C55.6022 18.0826 56.0717 17.961 56.6096 17.961C57.1681 17.961 57.6427 18.0895 58.0333 18.3464C58.4273 18.6034 58.722 18.9701 58.9173 19.4463C59.1161 19.9226 59.2017 20.4897 59.1743 21.1476H58.2492V20.8186C58.2389 20.1368 58.1001 19.6279 57.8328 19.2921C57.5656 18.9529 57.1681 18.7833 56.6404 18.7833C56.0751 18.7833 55.6451 18.9649 55.3504 19.3281C55.0557 19.6913 54.9084 20.2122 54.9084 20.8906C54.9084 21.545 55.0557 22.0522 55.3504 22.4119C55.6451 22.7717 56.0648 22.9516 56.6096 22.9516C56.9762 22.9516 57.2949 22.8677 57.5656 22.6998C57.8363 22.5319 58.0487 22.2903 58.2029 21.9751L59.0818 22.2783C58.8659 22.7683 58.5404 23.1486 58.1053 23.4193C57.6735 23.6866 57.1887 23.8202 56.6507 23.8202ZM54.6 21.1476V20.4126H58.7015V21.1476H54.6ZM64.1204 23.666V20.8854C64.1204 20.6216 64.0965 20.3681 64.0485 20.1248C64.0039 19.8815 63.9234 19.6639 63.8069 19.472C63.6938 19.2767 63.5397 19.1225 63.3444 19.0095C63.1525 18.8964 62.9092 18.8399 62.6145 18.8399C62.3849 18.8399 62.1759 18.8793 61.9875 18.9581C61.8024 19.0335 61.6431 19.15 61.5095 19.3076C61.3759 19.4652 61.2713 19.6639 61.196 19.9038C61.124 20.1402 61.088 20.4195 61.088 20.7415L60.4867 20.5565C60.4867 20.0186 60.5826 19.5577 60.7745 19.1739C60.9698 18.7867 61.2422 18.4904 61.5917 18.2848C61.9446 18.0758 62.3592 17.9713 62.8355 17.9713C63.1953 17.9713 63.502 18.0278 63.7555 18.1409C64.0091 18.2539 64.2198 18.4047 64.3877 18.5932C64.5556 18.7782 64.6875 18.9872 64.7835 19.2202C64.8794 19.4498 64.9462 19.6845 64.9839 19.9243C65.025 20.1608 65.0456 20.3852 65.0456 20.5976V23.666H64.1204ZM60.1629 23.666V18.1152H60.9852V19.6005H61.088V23.666H60.1629ZM69.481 23.666C69.1521 23.7311 68.8266 23.7568 68.5045 23.7431C68.1858 23.7328 67.9015 23.6694 67.6513 23.5529C67.4012 23.433 67.211 23.248 67.0808 22.9979C66.9712 22.7786 66.9112 22.5576 66.9009 22.3348C66.8941 22.1087 66.8906 21.8534 66.8906 21.569V16.5733H67.8055V21.5279C67.8055 21.7541 67.8072 21.9476 67.8107 22.1087C67.8175 22.2697 67.8535 22.4085 67.9186 22.525C68.0419 22.7443 68.2372 22.8728 68.5045 22.9105C68.7752 22.9482 69.1007 22.9379 69.481 22.8796V23.666ZM65.7651 18.8707V18.1152H69.481V18.8707H65.7651ZM72.7687 23.666V16.1107H73.6835V23.666H72.7687ZM75.3285 17.1335V16.1878H76.2433V17.1335H75.3285ZM75.3285 23.666V18.1152H76.2433V23.666H75.3285ZM81.7379 23.666V20.8854C81.7379 20.6216 81.7139 20.3681 81.6659 20.1248C81.6214 19.8815 81.5409 19.6639 81.4244 19.472C81.3113 19.2767 81.1571 19.1225 80.9618 19.0095C80.7699 18.8964 80.5266 18.8399 80.232 18.8399C80.0024 18.8399 79.7934 18.8793 79.6049 18.9581C79.4199 19.0335 79.2606 19.15 79.1269 19.3076C78.9933 19.4652 78.8888 19.6639 78.8134 19.9038C78.7415 20.1402 78.7055 20.4195 78.7055 20.7415L78.1041 20.5565C78.1041 20.0186 78.2001 19.5577 78.392 19.1739C78.5873 18.7867 78.8597 18.4904 79.2092 18.2848C79.5621 18.0758 79.9767 17.9713 80.453 17.9713C80.8128 17.9713 81.1194 18.0278 81.373 18.1409C81.6265 18.2539 81.8373 18.4047 82.0052 18.5932C82.1731 18.7782 82.305 18.9872 82.4009 19.2202C82.4969 19.4498 82.5637 19.6845 82.6014 19.9243C82.6425 20.1608 82.663 20.3852 82.663 20.5976V23.666H81.7379ZM77.7803 23.666V18.1152H78.6027V19.6005H78.7055V23.666H77.7803ZM83.9941 23.666L83.9993 16.2649H84.9244V20.7878L87.2527 18.1152H88.44L85.9883 20.8906L88.7278 23.666H87.448L84.9244 20.9934V23.666H83.9941ZM91.8266 23.666V17.8119C91.8266 17.668 91.8335 17.5224 91.8472 17.375C91.8609 17.2243 91.8917 17.0787 91.9397 16.9382C91.9876 16.7943 92.0665 16.6623 92.1761 16.5424C92.3029 16.4019 92.4416 16.3026 92.5924 16.2443C92.7432 16.1826 92.8957 16.145 93.0498 16.1312C93.2075 16.1175 93.3565 16.1107 93.497 16.1107H94.2011V16.8714H93.5484C93.2777 16.8714 93.0755 16.9382 92.9419 17.0718C92.8083 17.202 92.7415 17.4007 92.7415 17.668V23.666H91.8266ZM90.886 18.8707V18.1152H94.2011V18.8707H90.886ZM97.185 23.8202C96.6333 23.8202 96.157 23.6951 95.7561 23.445C95.3587 23.1949 95.052 22.8488 94.8361 22.4068C94.6203 21.9648 94.5123 21.4577 94.5123 20.8854C94.5123 20.303 94.622 19.7924 94.8413 19.3538C95.0606 18.9152 95.3707 18.5743 95.7715 18.331C96.1724 18.0843 96.6436 17.961 97.185 17.961C97.74 17.961 98.218 18.086 98.6189 18.3362C99.0198 18.5829 99.3265 18.9272 99.5389 19.3692C99.7548 19.8078 99.8627 20.3132 99.8627 20.8854C99.8627 21.4645 99.7548 21.9751 99.5389 22.4171C99.3231 22.8557 99.0147 23.2 98.6138 23.4501C98.2129 23.6969 97.7366 23.8202 97.185 23.8202ZM97.185 22.9516C97.7606 22.9516 98.1889 22.7597 98.4699 22.376C98.7508 21.9922 98.8913 21.4954 98.8913 20.8854C98.8913 20.2584 98.7491 19.7599 98.4647 19.3898C98.1803 19.0163 97.7537 18.8296 97.185 18.8296C96.7978 18.8296 96.4791 18.917 96.229 19.0917C95.9788 19.2665 95.7921 19.508 95.6688 19.8164C95.5454 20.1248 95.4837 20.4811 95.4837 20.8854C95.4837 21.5091 95.6276 22.0093 95.9155 22.3862C96.2033 22.7631 96.6264 22.9516 97.185 22.9516ZM100.994 23.666V18.1152H101.812V19.4566L101.678 19.2819C101.743 19.1105 101.827 18.9529 101.93 18.809C102.036 18.6651 102.154 18.5469 102.284 18.4544C102.428 18.3379 102.591 18.2488 102.773 18.1871C102.954 18.1254 103.139 18.0895 103.328 18.0792C103.516 18.0655 103.693 18.0775 103.857 18.1152V18.9735C103.665 18.9221 103.455 18.9084 103.225 18.9324C102.995 18.9564 102.783 19.0403 102.588 19.1842C102.409 19.311 102.271 19.4652 102.171 19.6468C102.075 19.8284 102.009 20.0254 101.971 20.2378C101.933 20.4469 101.914 20.661 101.914 20.8803V23.666H100.994ZM108.825 24.6888V23.4707H110.063V24.6888H108.825ZM108.825 16.4653V15.2472H110.063V16.4653H108.825ZM109.472 23.8202C108.951 23.8202 108.485 23.7243 108.074 23.5324C107.663 23.3405 107.325 23.0698 107.062 22.7203C106.801 22.3708 106.635 21.9562 106.563 21.4765L107.786 21.2812C107.882 21.7027 108.088 22.0385 108.403 22.2886C108.722 22.5353 109.102 22.6586 109.544 22.6586C109.969 22.6586 110.318 22.5593 110.593 22.3605C110.867 22.1584 111.004 21.9031 111.004 21.5947C111.004 21.3789 110.939 21.2041 110.808 21.0705C110.678 20.9334 110.469 20.8203 110.181 20.7313L108.398 20.1762C107.36 19.8541 106.841 19.2236 106.841 18.2848C106.841 17.8462 106.945 17.4641 107.154 17.1386C107.367 16.8097 107.665 16.5578 108.048 16.3831C108.432 16.2049 108.885 16.1175 109.405 16.121C109.888 16.1244 110.318 16.2118 110.695 16.3831C111.076 16.5544 111.391 16.8011 111.641 17.1232C111.895 17.4453 112.075 17.8325 112.181 18.2848L110.911 18.5161C110.863 18.2728 110.769 18.0586 110.629 17.8736C110.488 17.6886 110.312 17.5447 110.099 17.4419C109.887 17.3391 109.65 17.2842 109.39 17.2774C109.14 17.274 108.915 17.3134 108.717 17.3956C108.518 17.4744 108.36 17.5875 108.244 17.7348C108.127 17.8787 108.069 18.0415 108.069 18.2231C108.069 18.4253 108.15 18.5983 108.311 18.7422C108.475 18.8861 108.734 19.0095 109.087 19.1123L110.418 19.4977C111.059 19.6828 111.519 19.9346 111.8 20.2533C112.085 20.5685 112.227 20.9882 112.227 21.5125C112.227 21.9716 112.112 22.3742 111.883 22.7203C111.653 23.0664 111.331 23.3371 110.916 23.5324C110.502 23.7243 110.02 23.8202 109.472 23.8202ZM115.536 23.8202C115.159 23.8202 114.808 23.7431 114.483 23.5889C114.157 23.4313 113.876 23.2154 113.64 22.9413C113.407 22.6672 113.239 22.3485 113.136 21.9853L114.328 21.6667C114.376 21.8654 114.464 22.0367 114.591 22.1806C114.721 22.3246 114.872 22.4359 115.043 22.5147C115.218 22.5935 115.397 22.6329 115.583 22.6329C115.822 22.6329 116.042 22.5747 116.24 22.4582C116.439 22.3417 116.597 22.1858 116.713 21.9905C116.83 21.7917 116.888 21.5725 116.888 21.3326C116.888 21.0927 116.828 20.8752 116.708 20.6799C116.592 20.4811 116.434 20.3252 116.235 20.2122C116.037 20.0957 115.819 20.0374 115.583 20.0374C115.298 20.0374 115.062 20.0888 114.873 20.1916C114.688 20.2944 114.546 20.404 114.447 20.5205L113.388 20.1813L113.614 16.2649H117.633V17.4264H114.277L114.74 16.9896L114.575 19.7136L114.349 19.4361C114.541 19.2613 114.764 19.1311 115.017 19.0454C115.271 18.9598 115.516 18.917 115.752 18.917C116.215 18.917 116.624 19.0232 116.981 19.2356C117.34 19.4446 117.621 19.7307 117.823 20.0939C118.029 20.4571 118.132 20.87 118.132 21.3326C118.132 21.7952 118.012 22.2149 117.772 22.5918C117.532 22.9653 117.215 23.2634 116.821 23.4861C116.431 23.7088 116.002 23.8202 115.536 23.8202ZM122.027 23.8202C121.503 23.8202 121.04 23.7088 120.639 23.4861C120.238 23.26 119.925 22.9465 119.699 22.5456C119.476 22.1447 119.365 21.6821 119.365 21.1579V18.773C119.365 18.2488 119.476 17.7862 119.699 17.3853C119.925 16.9844 120.238 16.6726 120.639 16.4499C121.04 16.2238 121.503 16.1107 122.027 16.1107C122.551 16.1107 123.012 16.2238 123.41 16.4499C123.811 16.6726 124.124 16.9844 124.35 17.3853C124.576 17.7862 124.689 18.2488 124.689 18.773V21.1579C124.689 21.6821 124.576 22.1447 124.35 22.5456C124.124 22.9465 123.811 23.26 123.41 23.4861C123.012 23.7088 122.551 23.8202 122.027 23.8202ZM122.027 22.6432C122.287 22.6432 122.524 22.5815 122.736 22.4582C122.949 22.3314 123.117 22.1635 123.24 21.9545C123.363 21.7421 123.425 21.5056 123.425 21.2452V18.6805C123.425 18.4167 123.363 18.1803 123.24 17.9713C123.117 17.7588 122.949 17.5909 122.736 17.4676C122.524 17.3408 122.287 17.2774 122.027 17.2774C121.767 17.2774 121.53 17.3408 121.318 17.4676C121.105 17.5909 120.937 17.7588 120.814 17.9713C120.691 18.1803 120.629 18.4167 120.629 18.6805V21.2452C120.629 21.5056 120.691 21.7421 120.814 21.9545C120.937 22.1635 121.105 22.3314 121.318 22.4582C121.53 22.5815 121.767 22.6432 122.027 22.6432ZM128.793 23.8202C128.269 23.8202 127.806 23.7088 127.405 23.4861C127.004 23.26 126.691 22.9465 126.465 22.5456C126.242 22.1447 126.131 21.6821 126.131 21.1579V18.773C126.131 18.2488 126.242 17.7862 126.465 17.3853C126.691 16.9844 127.004 16.6726 127.405 16.4499C127.806 16.2238 128.269 16.1107 128.793 16.1107C129.317 16.1107 129.778 16.2238 130.176 16.4499C130.576 16.6726 130.89 16.9844 131.116 17.3853C131.342 17.7862 131.455 18.2488 131.455 18.773V21.1579C131.455 21.6821 131.342 22.1447 131.116 22.5456C130.89 22.9465 130.576 23.26 130.176 23.4861C129.778 23.7088 129.317 23.8202 128.793 23.8202ZM128.793 22.6432C129.053 22.6432 129.29 22.5815 129.502 22.4582C129.715 22.3314 129.883 22.1635 130.006 21.9545C130.129 21.7421 130.191 21.5056 130.191 21.2452V18.6805C130.191 18.4167 130.129 18.1803 130.006 17.9713C129.883 17.7588 129.715 17.5909 129.502 17.4676C129.29 17.3408 129.053 17.2774 128.793 17.2774C128.533 17.2774 128.296 17.3408 128.084 17.4676C127.871 17.5909 127.703 17.7588 127.58 17.9713C127.457 18.1803 127.395 18.4167 127.395 18.6805V21.2452C127.395 21.5056 127.457 21.7421 127.58 21.9545C127.703 22.1635 127.871 22.3314 128.084 22.4582C128.296 22.5815 128.533 22.6432 128.793 22.6432ZM132.177 24.3856H142.456V14.1062H132.177V24.3856ZM149.186 23.666V20.8854C149.186 20.6216 149.162 20.3681 149.114 20.1248C149.07 19.8815 148.989 19.6639 148.873 19.472C148.76 19.2767 148.605 19.1225 148.41 19.0095C148.218 18.8964 147.975 18.8399 147.68 18.8399C147.451 18.8399 147.242 18.8793 147.053 18.9581C146.868 19.0335 146.709 19.15 146.575 19.3076C146.442 19.4652 146.337 19.6639 146.262 19.9038C146.19 20.1402 146.154 20.4195 146.154 20.7415L145.552 20.5565C145.552 20.0186 145.648 19.5577 145.84 19.1739C146.036 18.7867 146.308 18.4904 146.657 18.2848C147.01 18.0758 147.425 17.9713 147.901 17.9713C148.261 17.9713 148.568 18.0278 148.821 18.1409C149.075 18.2539 149.286 18.4047 149.453 18.5932C149.621 18.7782 149.753 18.9872 149.849 19.2202C149.945 19.4498 150.012 19.6845 150.05 19.9243C150.091 20.1608 150.111 20.3852 150.111 20.5976V23.666H149.186ZM145.229 23.666V16.2649H146.051V20.3509H146.154V23.666H145.229ZM153.025 23.8202C152.611 23.8202 152.263 23.7448 151.982 23.5941C151.704 23.4399 151.494 23.2377 151.35 22.9876C151.209 22.7374 151.139 22.4633 151.139 22.1652C151.139 21.874 151.194 21.6221 151.304 21.4097C151.417 21.1938 151.574 21.0157 151.776 20.8752C151.979 20.7313 152.22 20.6182 152.501 20.536C152.765 20.464 153.06 20.4023 153.385 20.3509C153.714 20.2961 154.046 20.2464 154.382 20.2019C154.718 20.1573 155.032 20.1145 155.323 20.0734L154.994 20.2635C155.004 19.7701 154.905 19.4052 154.696 19.1688C154.49 18.9324 154.134 18.8142 153.627 18.8142C153.291 18.8142 152.996 18.8913 152.743 19.0454C152.493 19.1962 152.316 19.4429 152.213 19.7856L151.345 19.5234C151.478 19.0369 151.737 18.6548 152.121 18.3773C152.505 18.0997 153.01 17.961 153.637 17.961C154.141 17.961 154.572 18.0518 154.932 18.2334C155.295 18.4116 155.556 18.6822 155.713 19.0454C155.792 19.2168 155.842 19.4035 155.862 19.6057C155.883 19.8044 155.893 20.0134 155.893 20.2327V23.666H155.081V22.3348L155.271 22.4582C155.062 22.9071 154.769 23.2463 154.393 23.4758C154.019 23.7054 153.563 23.8202 153.025 23.8202ZM153.164 23.0544C153.493 23.0544 153.778 22.9961 154.017 22.8796C154.261 22.7597 154.456 22.6038 154.603 22.4119C154.751 22.2166 154.847 22.0042 154.891 21.7746C154.942 21.6033 154.97 21.4131 154.973 21.2041C154.98 20.9917 154.984 20.8289 154.984 20.7158L155.302 20.8546C155.004 20.8957 154.711 20.9351 154.423 20.9728C154.136 21.0105 153.863 21.0516 153.606 21.0962C153.349 21.1373 153.118 21.187 152.912 21.2452C152.762 21.2932 152.619 21.3549 152.486 21.4303C152.356 21.5056 152.249 21.6033 152.167 21.7232C152.088 21.8397 152.049 21.9853 152.049 22.1601C152.049 22.3109 152.087 22.4548 152.162 22.5918C152.241 22.7289 152.361 22.8402 152.522 22.9259C152.686 23.0116 152.9 23.0544 153.164 23.0544ZM159.327 23.8151C158.665 23.8151 158.122 23.6712 157.697 23.3833C157.276 23.0921 157.017 22.6861 156.921 22.1652L157.857 22.0162C157.932 22.3177 158.105 22.5576 158.376 22.7357C158.646 22.9105 158.982 22.9979 159.383 22.9979C159.764 22.9979 160.062 22.919 160.277 22.7614C160.493 22.6038 160.601 22.3897 160.601 22.119C160.601 21.9614 160.565 21.8346 160.493 21.7386C160.421 21.6393 160.272 21.5468 160.046 21.4611C159.823 21.3754 159.486 21.2726 159.034 21.1527C158.544 21.0225 158.158 20.8872 157.877 20.7467C157.596 20.6062 157.396 20.4434 157.276 20.2584C157.156 20.0734 157.096 19.8489 157.096 19.5851C157.096 19.2596 157.185 18.9752 157.363 18.7319C157.541 18.4852 157.79 18.2951 158.109 18.1614C158.431 18.0278 158.804 17.961 159.229 17.961C159.65 17.961 160.027 18.0278 160.36 18.1614C160.692 18.2951 160.959 18.4852 161.162 18.7319C161.367 18.9752 161.489 19.2596 161.526 19.5851L160.591 19.7547C160.546 19.4566 160.403 19.2219 160.159 19.0506C159.919 18.8793 159.609 18.7885 159.229 18.7782C158.869 18.7645 158.576 18.8279 158.35 18.9683C158.127 19.1088 158.016 19.299 158.016 19.5389C158.016 19.6725 158.057 19.7873 158.139 19.8832C158.225 19.9792 158.381 20.07 158.607 20.1556C158.837 20.2413 159.169 20.3389 159.604 20.4486C160.094 20.5719 160.48 20.7073 160.761 20.8546C161.045 20.9985 161.247 21.1698 161.367 21.3686C161.487 21.5639 161.547 21.8055 161.547 22.0933C161.547 22.6278 161.35 23.0493 160.956 23.3576C160.562 23.6626 160.019 23.8151 159.327 23.8151ZM30.8352 38.8202C30.3144 38.8202 29.8758 38.6917 29.5195 38.4347C29.1631 38.1743 28.8924 37.8231 28.7074 37.3811C28.5258 36.9357 28.435 36.4371 28.435 35.8854C28.435 35.3269 28.5258 34.8267 28.7074 34.3847C28.8924 33.9427 29.1631 33.5949 29.5195 33.3413C29.8793 33.0878 30.3196 32.961 30.8404 32.961C31.3543 32.961 31.7964 33.0895 32.1664 33.3464C32.5399 33.6 32.826 33.9478 33.0247 34.3898C33.2235 34.8318 33.3228 35.3304 33.3228 35.8854C33.3228 36.4405 33.2235 36.9391 33.0247 37.3811C32.826 37.8231 32.5399 38.1743 32.1664 38.4347C31.7964 38.6917 31.3526 38.8202 30.8352 38.8202ZM28.2808 38.666V31.2649H29.2008V34.58H29.098V38.666H28.2808ZM30.7222 37.9824C31.0888 37.9824 31.392 37.8899 31.6319 37.7049C31.8717 37.5199 32.0516 37.2697 32.1716 36.9545C32.2915 36.6358 32.3514 36.2795 32.3514 35.8854C32.3514 35.4948 32.2915 35.1419 32.1716 34.8267C32.0551 34.5114 31.8735 34.2613 31.6268 34.0763C31.3835 33.8913 31.0734 33.7987 30.6965 33.7987C30.3367 33.7987 30.0386 33.8878 29.8022 34.066C29.5657 34.2408 29.3893 34.4857 29.2728 34.801C29.1563 35.1128 29.098 35.4743 29.098 35.8854C29.098 36.2898 29.1546 36.6513 29.2676 36.9699C29.3841 37.2852 29.5623 37.5336 29.8022 37.7152C30.042 37.8934 30.3487 37.9824 30.7222 37.9824ZM36.8549 38.8202C36.3101 38.8202 35.8338 38.7003 35.4261 38.4604C35.0218 38.2172 34.7065 37.8796 34.4804 37.4479C34.2543 37.0128 34.1412 36.5056 34.1412 35.9266C34.1412 35.3201 34.2525 34.7958 34.4753 34.3538C34.698 33.9084 35.0081 33.5657 35.4055 33.3259C35.8064 33.0826 36.2759 32.961 36.8138 32.961C37.3723 32.961 37.8469 33.0895 38.2375 33.3464C38.6315 33.6034 38.9262 33.9701 39.1215 34.4463C39.3203 34.9226 39.4059 35.4897 39.3785 36.1476H38.4534V35.8186C38.4431 35.1368 38.3043 34.6279 38.0371 34.2921C37.7698 33.9529 37.3723 33.7833 36.8447 33.7833C36.2793 33.7833 35.8493 33.9649 35.5546 34.3281C35.2599 34.6913 35.1126 35.2122 35.1126 35.8906C35.1126 36.545 35.2599 37.0522 35.5546 37.4119C35.8493 37.7717 36.269 37.9516 36.8138 37.9516C37.1804 37.9516 37.4991 37.8677 37.7698 37.6998C38.0405 37.5319 38.2529 37.2903 38.4071 36.9751L39.286 37.2783C39.0701 37.7683 38.7446 38.1486 38.3095 38.4193C37.8777 38.6866 37.3929 38.8202 36.8549 38.8202ZM34.8042 36.1476V35.4126H38.9057V36.1476H34.8042ZM42.9282 38.8202C42.3834 38.8202 41.9071 38.7003 41.4994 38.4604C41.095 38.2172 40.7798 37.8796 40.5537 37.4479C40.3275 37.0128 40.2144 36.5056 40.2144 35.9266C40.2144 35.3201 40.3258 34.7958 40.5485 34.3538C40.7712 33.9084 41.0813 33.5657 41.4788 33.3259C41.8797 33.0826 42.3491 32.961 42.8871 32.961C43.4456 32.961 43.9201 33.0895 44.3108 33.3464C44.7048 33.6034 44.9995 33.9701 45.1948 34.4463C45.3935 34.9226 45.4792 35.4897 45.4518 36.1476H44.5266V35.8186C44.5163 35.1368 44.3776 34.6279 44.1103 34.2921C43.843 33.9529 43.4456 33.7833 42.9179 33.7833C42.3525 33.7833 41.9225 33.9649 41.6278 34.3281C41.3332 34.6913 41.1858 35.2122 41.1858 35.8906C41.1858 36.545 41.3332 37.0522 41.6278 37.4119C41.9225 37.7717 42.3423 37.9516 42.8871 37.9516C43.2537 37.9516 43.5724 37.8677 43.843 37.6998C44.1137 37.5319 44.3262 37.2903 44.4804 36.9751L45.3593 37.2783C45.1434 37.7683 44.8179 38.1486 44.3827 38.4193C43.951 38.6866 43.4661 38.8202 42.9282 38.8202ZM40.8775 36.1476V35.4126H44.9789V36.1476H40.8775ZM50.3979 38.666V35.8854C50.3979 35.6216 50.3739 35.3681 50.3259 35.1248C50.2814 34.8815 50.2009 34.6639 50.0844 34.472C49.9713 34.2767 49.8171 34.1225 49.6218 34.0095C49.4299 33.8964 49.1867 33.8399 48.892 33.8399C48.6624 33.8399 48.4534 33.8793 48.2649 33.9581C48.0799 34.0335 47.9206 34.15 47.7869 34.3076C47.6533 34.4652 47.5488 34.6639 47.4734 34.9038C47.4015 35.1402 47.3655 35.4195 47.3655 35.7415L46.7642 35.5565C46.7642 35.0186 46.8601 34.5577 47.052 34.1739C47.2473 33.7867 47.5197 33.4904 47.8692 33.2848C48.2221 33.0758 48.6367 32.9713 49.113 32.9713C49.4728 32.9713 49.7794 33.0278 50.033 33.1409C50.2865 33.2539 50.4973 33.4047 50.6652 33.5932C50.8331 33.7782 50.965 33.9872 51.0609 34.2202C51.1569 34.4498 51.2237 34.6845 51.2614 34.9243C51.3025 35.1608 51.323 35.3852 51.323 35.5976V38.666H50.3979ZM46.4404 38.666V33.1152H47.2627V34.6005H47.3655V38.666H46.4404ZM56.9632 41.2873C56.672 41.2873 56.3876 41.2427 56.11 41.1536C55.8325 41.0645 55.5772 40.9292 55.3442 40.7476C55.1146 40.5694 54.9227 40.3433 54.7686 40.0691L55.6063 39.6271C55.7434 39.8978 55.937 40.0948 56.1871 40.2182C56.4407 40.3416 56.7011 40.4032 56.9683 40.4032C57.3213 40.4032 57.6142 40.3381 57.8472 40.2079C58.0802 40.0811 58.2515 39.891 58.3612 39.6374C58.4743 39.3839 58.5291 39.0686 58.5257 38.6917V37.1755H58.6336V33.1152H59.4457V38.702C59.4457 38.8528 59.4405 38.9984 59.4302 39.1389C59.4234 39.2794 59.4063 39.4181 59.3788 39.5552C59.3069 39.9492 59.1647 40.273 58.9523 40.5266C58.7398 40.7836 58.4657 40.9737 58.1299 41.0971C57.7941 41.2239 57.4052 41.2873 56.9632 41.2873ZM56.8964 38.8202C56.379 38.8202 55.9353 38.6917 55.5652 38.4347C55.1951 38.1743 54.909 37.8231 54.7069 37.3811C54.5081 36.9391 54.4088 36.4405 54.4088 35.8854C54.4088 35.3304 54.5081 34.8318 54.7069 34.3898C54.909 33.9478 55.1951 33.6 55.5652 33.3464C55.9353 33.0895 56.3773 32.961 56.8912 32.961C57.4155 32.961 57.8558 33.0878 58.2121 33.3413C58.5685 33.5949 58.8375 33.9427 59.0191 34.3847C59.2041 34.8267 59.2966 35.3269 59.2966 35.8854C59.2966 36.4371 59.2041 36.9357 59.0191 37.3811C58.8375 37.8231 58.5685 38.1743 58.2121 38.4347C57.8558 38.6917 57.4172 38.8202 56.8964 38.8202ZM57.0095 37.9824C57.3829 37.9824 57.6896 37.8934 57.9295 37.7152C58.1693 37.5336 58.3458 37.2852 58.4588 36.9699C58.5753 36.6513 58.6336 36.2898 58.6336 35.8854C58.6336 35.4743 58.5753 35.1128 58.4588 34.801C58.3458 34.4857 58.171 34.2408 57.9346 34.066C57.6982 33.8878 57.3984 33.7987 57.0352 33.7987C56.6582 33.7987 56.3464 33.8913 56.0997 34.0763C55.8565 34.2613 55.6749 34.5114 55.5549 34.8267C55.4384 35.1419 55.3802 35.4948 55.3802 35.8854C55.3802 36.2795 55.4401 36.6358 55.5601 36.9545C55.68 37.2697 55.8599 37.5199 56.0997 37.7049C56.343 37.8899 56.6463 37.9824 57.0095 37.9824ZM63.2861 38.8202C62.7413 38.8202 62.265 38.7003 61.8573 38.4604C61.453 38.2172 61.1377 37.8796 60.9116 37.4479C60.6854 37.0128 60.5724 36.5056 60.5724 35.9266C60.5724 35.3201 60.6837 34.7958 60.9065 34.3538C61.1292 33.9084 61.4393 33.5657 61.8367 33.3259C62.2376 33.0826 62.7071 32.961 63.245 32.961C63.8035 32.961 64.2781 33.0895 64.6687 33.3464C65.0627 33.6034 65.3574 33.9701 65.5527 34.4463C65.7515 34.9226 65.8371 35.4897 65.8097 36.1476H64.8846V35.8186C64.8743 35.1368 64.7355 34.6279 64.4683 34.2921C64.201 33.9529 63.8035 33.7833 63.2758 33.7833C62.7105 33.7833 62.2805 33.9649 61.9858 34.3281C61.6911 34.6913 61.5438 35.2122 61.5438 35.8906C61.5438 36.545 61.6911 37.0522 61.9858 37.4119C62.2805 37.7717 62.7002 37.9516 63.245 37.9516C63.6116 37.9516 63.9303 37.8677 64.201 37.6998C64.4717 37.5319 64.6841 37.2903 64.8383 36.9751L65.7172 37.2783C65.5013 37.7683 65.1758 38.1486 64.7407 38.4193C64.3089 38.6866 63.8241 38.8202 63.2861 38.8202ZM61.2354 36.1476V35.4126H65.3369V36.1476H61.2354ZM70.7558 38.666V35.8854C70.7558 35.6216 70.7319 35.3681 70.6839 35.1248C70.6393 34.8815 70.5588 34.6639 70.4423 34.472C70.3293 34.2767 70.1751 34.1225 69.9798 34.0095C69.7879 33.8964 69.5446 33.8399 69.2499 33.8399C69.0204 33.8399 68.8113 33.8793 68.6229 33.9581C68.4379 34.0335 68.2785 34.15 68.1449 34.3076C68.0113 34.4652 67.9068 34.6639 67.8314 34.9038C67.7594 35.1402 67.7234 35.4195 67.7234 35.7415L67.1221 35.5565C67.1221 35.0186 67.218 34.5577 67.4099 34.1739C67.6052 33.7867 67.8776 33.4904 68.2271 33.2848C68.5801 33.0758 68.9947 32.9713 69.4709 32.9713C69.8307 32.9713 70.1374 33.0278 70.3909 33.1409C70.6445 33.2539 70.8552 33.4047 71.0231 33.5932C71.191 33.7782 71.3229 33.9872 71.4189 34.2202C71.5148 34.4498 71.5816 34.6845 71.6193 34.9243C71.6604 35.1608 71.681 35.3852 71.681 35.5976V38.666H70.7558ZM66.7983 38.666V33.1152H67.6206V34.6005H67.7234V38.666H66.7983ZM75.3724 38.8202C74.8276 38.8202 74.3513 38.7003 73.9436 38.4604C73.5393 38.2172 73.224 37.8796 72.9979 37.4479C72.7717 37.0128 72.6587 36.5056 72.6587 35.9266C72.6587 35.3201 72.77 34.7958 72.9927 34.3538C73.2155 33.9084 73.5255 33.5657 73.923 33.3259C74.3239 33.0826 74.7933 32.961 75.3313 32.961C75.8898 32.961 76.3644 33.0895 76.755 33.3464C77.149 33.6034 77.4437 33.9701 77.639 34.4463C77.8377 34.9226 77.9234 35.4897 77.896 36.1476H76.9708V35.8186C76.9606 35.1368 76.8218 34.6279 76.5545 34.2921C76.2873 33.9529 75.8898 33.7833 75.3621 33.7833C74.7968 33.7833 74.3667 33.9649 74.0721 34.3281C73.7774 34.6913 73.6301 35.2122 73.6301 35.8906C73.6301 36.545 73.7774 37.0522 74.0721 37.4119C74.3667 37.7717 74.7865 37.9516 75.3313 37.9516C75.6979 37.9516 76.0166 37.8677 76.2873 37.6998C76.558 37.5319 76.7704 37.2903 76.9246 36.9751L77.8035 37.2783C77.5876 37.7683 77.2621 38.1486 76.8269 38.4193C76.3952 38.6866 75.9104 38.8202 75.3724 38.8202ZM73.3217 36.1476V35.4126H77.4231V36.1476H73.3217ZM79.0403 38.666V33.1152H79.8575V34.4566L79.7239 34.2819C79.789 34.1105 79.8729 33.9529 79.9757 33.809C80.0819 33.6651 80.2001 33.5469 80.3303 33.4544C80.4743 33.3379 80.637 33.2488 80.8186 33.1871C81.0002 33.1254 81.1852 33.0895 81.3737 33.0792C81.5622 33.0655 81.7386 33.0775 81.9031 33.1152V33.9735C81.7112 33.9221 81.5005 33.9084 81.2709 33.9324C81.0413 33.9564 80.8289 34.0403 80.6336 34.1842C80.4554 34.311 80.3166 34.4652 80.2173 34.6468C80.1213 34.8284 80.0545 35.0254 80.0168 35.2378C79.9791 35.4469 79.9603 35.661 79.9603 35.8803V38.666H79.0403ZM84.2722 38.8202C83.8576 38.8202 83.5098 38.7448 83.2288 38.5941C82.9513 38.4399 82.7405 38.2377 82.5966 37.9876C82.4561 37.7374 82.3859 37.4633 82.3859 37.1652C82.3859 36.874 82.4407 36.6221 82.5504 36.4097C82.6634 36.1938 82.8211 36.0157 83.0232 35.8752C83.2254 35.7313 83.4669 35.6182 83.7479 35.536C84.0117 35.464 84.3064 35.4023 84.6319 35.3509C84.9609 35.2961 85.2932 35.2464 85.629 35.2019C85.9648 35.1573 86.2783 35.1145 86.5696 35.0734L86.2407 35.2635C86.2509 34.7701 86.1516 34.4052 85.9426 34.1688C85.737 33.9324 85.3806 33.8142 84.8735 33.8142C84.5377 33.8142 84.243 33.8913 83.9895 34.0454C83.7393 34.1962 83.5629 34.4429 83.4601 34.7856L82.5915 34.5234C82.7251 34.0369 82.9838 33.6548 83.3676 33.3773C83.7513 33.0997 84.2567 32.961 84.8838 32.961C85.3875 32.961 85.8192 33.0518 86.179 33.2334C86.5422 33.4116 86.8026 33.6822 86.9602 34.0454C87.039 34.2168 87.0887 34.4035 87.1093 34.6057C87.1298 34.8044 87.1401 35.0134 87.1401 35.2327V38.666H86.328V37.3348L86.5182 37.4582C86.3092 37.9071 86.0162 38.2463 85.6393 38.4758C85.2658 38.7054 84.8101 38.8202 84.2722 38.8202ZM84.4109 38.0544C84.7399 38.0544 85.0243 37.9961 85.2641 37.8796C85.5074 37.7597 85.7027 37.6038 85.85 37.4119C85.9974 37.2166 86.0933 37.0042 86.1379 36.7746C86.1893 36.6033 86.2167 36.4131 86.2201 36.2041C86.227 35.9917 86.2304 35.8289 86.2304 35.7158L86.549 35.8546C86.2509 35.8957 85.958 35.9351 85.6702 35.9728C85.3823 36.0105 85.1099 36.0516 84.8529 36.0962C84.596 36.1373 84.3647 36.187 84.1591 36.2452C84.0083 36.2932 83.8661 36.3549 83.7325 36.4303C83.6023 36.5056 83.4961 36.6033 83.4138 36.7232C83.335 36.8397 83.2956 36.9853 83.2956 37.1601C83.2956 37.3109 83.3333 37.4548 83.4087 37.5918C83.4875 37.7289 83.6074 37.8402 83.7685 37.9259C83.9329 38.0116 84.1471 38.0544 84.4109 38.0544ZM91.5756 38.666C91.2467 38.7311 90.9212 38.7568 90.5991 38.7431C90.2804 38.7328 89.996 38.6694 89.7459 38.5529C89.4958 38.433 89.3056 38.248 89.1754 37.9979C89.0658 37.7786 89.0058 37.5576 88.9955 37.3348C88.9887 37.1087 88.9852 36.8534 88.9852 36.569V31.5733H89.9001V36.5279C89.9001 36.7541 89.9018 36.9476 89.9052 37.1087C89.9121 37.2697 89.9481 37.4085 90.0132 37.525C90.1365 37.7443 90.3318 37.8728 90.5991 37.9105C90.8698 37.9482 91.1953 37.9379 91.5756 37.8796V38.666ZM87.8597 33.8707V33.1152H91.5756V33.8707H87.8597ZM94.8771 38.8202C94.3323 38.8202 93.856 38.7003 93.4483 38.4604C93.0439 38.2172 92.7287 37.8796 92.5026 37.4479C92.2764 37.0128 92.1633 36.5056 92.1633 35.9266C92.1633 35.3201 92.2747 34.7958 92.4974 34.3538C92.7201 33.9084 93.0302 33.5657 93.4277 33.3259C93.8286 33.0826 94.298 32.961 94.836 32.961C95.3945 32.961 95.869 33.0895 96.2597 33.3464C96.6537 33.6034 96.9484 33.9701 97.1437 34.4463C97.3424 34.9226 97.4281 35.4897 97.4007 36.1476H96.4755V35.8186C96.4652 35.1368 96.3265 34.6279 96.0592 34.2921C95.7919 33.9529 95.3945 33.7833 94.8668 33.7833C94.3014 33.7833 93.8714 33.9649 93.5767 34.3281C93.2821 34.6913 93.1347 35.2122 93.1347 35.8906C93.1347 36.545 93.2821 37.0522 93.5767 37.4119C93.8714 37.7717 94.2912 37.9516 94.836 37.9516C95.2026 37.9516 95.5213 37.8677 95.7919 37.6998C96.0626 37.5319 96.2751 37.2903 96.4293 36.9751L97.3082 37.2783C97.0923 37.7683 96.7668 38.1486 96.3316 38.4193C95.8999 38.6866 95.415 38.8202 94.8771 38.8202ZM92.8264 36.1476V35.4126H96.9278V36.1476H92.8264ZM100.724 38.8202C100.207 38.8202 99.7631 38.6917 99.393 38.4347C99.023 38.1743 98.7368 37.8231 98.5347 37.3811C98.336 36.9391 98.2366 36.4405 98.2366 35.8854C98.2366 35.3304 98.336 34.8318 98.5347 34.3898C98.7368 33.9478 99.023 33.6 99.393 33.3464C99.7631 33.0895 100.205 32.961 100.719 32.961C101.243 32.961 101.684 33.0878 102.04 33.3413C102.396 33.5949 102.665 33.9427 102.847 34.3847C103.032 34.8267 103.124 35.3269 103.124 35.8854C103.124 36.4371 103.032 36.9357 102.847 37.3811C102.665 37.8231 102.396 38.1743 102.04 38.4347C101.684 38.6917 101.245 38.8202 100.724 38.8202ZM100.837 37.9824C101.211 37.9824 101.517 37.8934 101.757 37.7152C101.997 37.5336 102.174 37.2852 102.287 36.9699C102.403 36.6513 102.461 36.2898 102.461 35.8854C102.461 35.4743 102.403 35.1128 102.287 34.801C102.174 34.4857 101.999 34.2408 101.762 34.066C101.526 33.8878 101.226 33.7987 100.863 33.7987C100.486 33.7987 100.174 33.8913 99.9275 34.0763C99.6843 34.2613 99.5027 34.5114 99.3827 34.8267C99.2662 35.1419 99.208 35.4948 99.208 35.8854C99.208 36.2795 99.2679 36.6358 99.3879 36.9545C99.5078 37.2697 99.6877 37.5199 99.9275 37.7049C100.171 37.8899 100.474 37.9824 100.837 37.9824ZM102.461 38.666V34.58H102.359V31.2649H103.279V38.666H102.461ZM107.306 38.666V32.8119C107.306 32.668 107.313 32.5224 107.326 32.375C107.34 32.2243 107.371 32.0787 107.419 31.9382C107.467 31.7943 107.546 31.6623 107.655 31.5424C107.782 31.4019 107.921 31.3026 108.072 31.2443C108.222 31.1826 108.375 31.145 108.529 31.1312C108.687 31.1175 108.836 31.1107 108.976 31.1107H109.68V31.8714H109.028C108.757 31.8714 108.555 31.9382 108.421 32.0718C108.288 32.202 108.221 32.4007 108.221 32.668V38.666H107.306ZM106.365 33.8707V33.1152H109.68V33.8707H106.365ZM112.664 38.8202C112.113 38.8202 111.636 38.6951 111.235 38.445C110.838 38.1949 110.531 37.8488 110.315 37.4068C110.1 36.9648 109.992 36.4577 109.992 35.8854C109.992 35.303 110.101 34.7924 110.321 34.3538C110.54 33.9152 110.85 33.5743 111.251 33.331C111.652 33.0843 112.123 32.961 112.664 32.961C113.219 32.961 113.697 33.086 114.098 33.3362C114.499 33.5829 114.806 33.9272 115.018 34.3692C115.234 34.8078 115.342 35.3132 115.342 35.8854C115.342 36.4645 115.234 36.9751 115.018 37.4171C114.802 37.8557 114.494 38.2 114.093 38.4501C113.692 38.6969 113.216 38.8202 112.664 38.8202ZM112.664 37.9516C113.24 37.9516 113.668 37.7597 113.949 37.376C114.23 36.9922 114.371 36.4954 114.371 35.8854C114.371 35.2584 114.228 34.7599 113.944 34.3898C113.66 34.0163 113.233 33.8296 112.664 33.8296C112.277 33.8296 111.958 33.917 111.708 34.0917C111.458 34.2665 111.271 34.508 111.148 34.8164C111.025 35.1248 110.963 35.4811 110.963 35.8854C110.963 36.5091 111.107 37.0093 111.395 37.3862C111.683 37.7631 112.106 37.9516 112.664 37.9516ZM116.474 38.666V33.1152H117.291V34.4566L117.157 34.2819C117.222 34.1105 117.306 33.9529 117.409 33.809C117.515 33.6651 117.633 33.5469 117.764 33.4544C117.908 33.3379 118.07 33.2488 118.252 33.1871C118.434 33.1254 118.619 33.0895 118.807 33.0792C118.995 33.0655 119.172 33.0775 119.336 33.1152V33.9735C119.145 33.9221 118.934 33.9084 118.704 33.9324C118.475 33.9564 118.262 34.0403 118.067 34.1842C117.889 34.311 117.75 34.4652 117.651 34.6468C117.555 34.8284 117.488 35.0254 117.45 35.2378C117.412 35.4469 117.394 35.661 117.394 35.8803V38.666H116.474ZM122.366 38.666V31.2649H125.424C125.496 31.2649 125.589 31.2683 125.702 31.2752C125.815 31.2786 125.919 31.2889 126.015 31.306C126.444 31.3711 126.797 31.5133 127.074 31.7326C127.355 31.9519 127.562 32.2294 127.696 32.5652C127.833 32.8976 127.902 33.2676 127.902 33.6754C127.902 34.2784 127.749 34.7976 127.444 35.2327C127.139 35.6644 126.672 35.9317 126.041 36.0345L125.512 36.0808H123.605V38.666H122.366ZM126.617 38.666L125.157 35.6542L126.416 35.3766L128.02 38.666H126.617ZM123.605 34.9243H125.373C125.441 34.9243 125.519 34.9209 125.604 34.9141C125.69 34.9072 125.769 34.8935 125.841 34.8729C126.046 34.8215 126.207 34.7307 126.324 34.6005C126.444 34.4703 126.528 34.323 126.576 34.1585C126.627 33.994 126.653 33.833 126.653 33.6754C126.653 33.5178 126.627 33.3567 126.576 33.1923C126.528 33.0244 126.444 32.8753 126.324 32.7451C126.207 32.6149 126.046 32.5241 125.841 32.4727C125.769 32.4521 125.69 32.4402 125.604 32.4367C125.519 32.4299 125.441 32.4264 125.373 32.4264H123.605V34.9243ZM130.704 38.8202C130.303 38.8202 129.964 38.7448 129.687 38.5941C129.409 38.4399 129.198 38.236 129.054 37.9824C128.914 37.7289 128.844 37.4496 128.844 37.1447C128.844 36.8774 128.888 36.6376 128.977 36.4251C129.066 36.2092 129.204 36.0242 129.389 35.87C129.574 35.7124 129.813 35.5839 130.108 35.4846C130.331 35.4126 130.591 35.3475 130.889 35.2892C131.191 35.231 131.516 35.1779 131.866 35.1299C132.219 35.0785 132.587 35.0237 132.971 34.9654L132.529 35.2173C132.532 34.8335 132.447 34.5508 132.272 34.3692C132.097 34.1876 131.803 34.0968 131.388 34.0968C131.138 34.0968 130.896 34.1551 130.663 34.2716C130.43 34.3881 130.267 34.5885 130.175 34.8729L129.044 34.5183C129.181 34.0489 129.442 33.672 129.825 33.3876C130.213 33.1032 130.733 32.961 131.388 32.961C131.881 32.961 132.315 33.0415 132.688 33.2025C133.065 33.3636 133.344 33.6274 133.526 33.994C133.625 34.1894 133.685 34.3898 133.706 34.5954C133.726 34.7976 133.737 35.0186 133.737 35.2584V38.666H132.652V37.4633L132.832 37.6586C132.582 38.0595 132.289 38.3542 131.953 38.5427C131.621 38.7277 131.205 38.8202 130.704 38.8202ZM130.951 37.8334C131.232 37.8334 131.472 37.7837 131.671 37.6843C131.869 37.585 132.027 37.4633 132.143 37.3194C132.263 37.1755 132.344 37.0402 132.385 36.9134C132.45 36.7558 132.486 36.5759 132.493 36.3737C132.503 36.1681 132.508 36.0019 132.508 35.8752L132.889 35.9882C132.515 36.0465 132.195 36.0979 131.928 36.1424C131.66 36.187 131.431 36.2298 131.239 36.2709C131.047 36.3086 130.877 36.3514 130.73 36.3994C130.586 36.4508 130.464 36.5108 130.365 36.5793C130.266 36.6478 130.189 36.7266 130.134 36.8157C130.082 36.9048 130.057 37.0093 130.057 37.1293C130.057 37.2663 130.091 37.3879 130.16 37.4942C130.228 37.597 130.327 37.6792 130.458 37.7409C130.591 37.8025 130.756 37.8334 130.951 37.8334ZM135.493 41.1331L136.563 38.1983L136.583 39.0618L134.162 33.1152H135.452L137.169 37.5147H136.84L138.51 33.1152H139.749L136.655 41.1331H135.493ZM141.41 38.666V33.0278C141.41 32.8873 141.416 32.7331 141.426 32.5652C141.436 32.3939 141.465 32.2243 141.513 32.0564C141.561 31.8885 141.649 31.736 141.775 31.599C141.933 31.4242 142.103 31.3043 142.284 31.2392C142.469 31.1707 142.651 31.133 142.829 31.1261C143.007 31.1158 143.163 31.1107 143.297 31.1107H143.99V32.1181H143.348C143.112 32.1181 142.935 32.178 142.819 32.298C142.706 32.4145 142.649 32.5686 142.649 32.7605V38.666H141.41ZM140.516 34.0866V33.1152H143.99V34.0866H140.516ZM147.063 38.8202C146.508 38.8202 146.023 38.6951 145.608 38.445C145.194 38.1949 144.872 37.8505 144.642 37.4119C144.416 36.9699 144.303 36.4628 144.303 35.8906C144.303 35.3081 144.419 34.7976 144.652 34.359C144.885 33.9204 145.209 33.5777 145.624 33.331C146.038 33.0843 146.518 32.961 147.063 32.961C147.621 32.961 148.108 33.086 148.523 33.3362C148.937 33.5863 149.259 33.9324 149.489 34.3744C149.718 34.813 149.833 35.3184 149.833 35.8906C149.833 36.4662 149.717 36.9751 149.484 37.4171C149.254 37.8557 148.932 38.2 148.517 38.4501C148.103 38.6969 147.618 38.8202 147.063 38.8202ZM147.063 37.6586C147.556 37.6586 147.923 37.4942 148.163 37.1652C148.403 36.8363 148.523 36.4114 148.523 35.8906C148.523 35.3526 148.401 34.9243 148.158 34.6057C147.914 34.2836 147.55 34.1225 147.063 34.1225C146.731 34.1225 146.456 34.1979 146.241 34.3487C146.028 34.496 145.871 34.7033 145.768 34.9706C145.665 35.2344 145.614 35.5411 145.614 35.8906C145.614 36.4285 145.735 36.8586 145.978 37.1806C146.225 37.4993 146.587 37.6586 147.063 37.6586ZM150.966 38.666V33.1152H152.06V34.4669L151.927 34.2921C151.995 34.1071 152.086 33.9392 152.199 33.7885C152.316 33.6343 152.454 33.5075 152.616 33.4081C152.753 33.3156 152.903 33.2437 153.068 33.1923C153.236 33.1374 153.407 33.1049 153.582 33.0946C153.757 33.0809 153.926 33.0878 154.091 33.1152V34.2716C153.926 34.2236 153.736 34.2082 153.52 34.2253C153.308 34.2425 153.116 34.3024 152.944 34.4052C152.773 34.4977 152.633 34.6159 152.523 34.7599C152.417 34.9038 152.338 35.0682 152.287 35.2533C152.235 35.4349 152.209 35.6319 152.209 35.8443V38.666H150.966ZM157.196 38.8202C156.686 38.8202 156.241 38.6917 155.86 38.4347C155.48 38.1777 155.185 37.8282 154.976 37.3862C154.767 36.9442 154.663 36.4457 154.663 35.8906C154.663 35.3287 154.767 34.8284 154.976 34.3898C155.189 33.9478 155.488 33.6 155.876 33.3464C156.263 33.0895 156.718 32.961 157.243 32.961C157.77 32.961 158.212 33.0895 158.569 33.3464C158.929 33.6 159.201 33.9478 159.386 34.3898C159.571 34.8318 159.664 35.3321 159.664 35.8906C159.664 36.4422 159.571 36.9408 159.386 37.3862C159.201 37.8282 158.925 38.1777 158.559 38.4347C158.192 38.6917 157.738 38.8202 157.196 38.8202ZM157.387 37.71C157.719 37.71 157.986 37.6347 158.188 37.4839C158.394 37.3297 158.543 37.1155 158.636 36.8414C158.732 36.5673 158.78 36.2504 158.78 35.8906C158.78 35.5274 158.732 35.2104 158.636 34.9397C158.543 34.6656 158.397 34.4532 158.199 34.3024C158 34.1482 157.743 34.0711 157.428 34.0711C157.095 34.0711 156.821 34.1534 156.605 34.3178C156.39 34.4789 156.23 34.6982 156.127 34.9757C156.025 35.2498 155.973 35.5548 155.973 35.8906C155.973 36.2298 156.023 36.5382 156.122 36.8157C156.225 37.0898 156.381 37.3074 156.59 37.4685C156.799 37.6295 157.065 37.71 157.387 37.71ZM158.78 38.666V34.7701H158.625V31.2649H159.874V38.666H158.78ZM31.0254 53.8202C30.484 53.8202 29.9958 53.726 29.5606 53.5375C29.1289 53.3491 28.7725 53.0801 28.4915 52.7306C28.214 52.3777 28.0375 51.9596 27.9622 51.4765L29.2471 51.2812C29.3567 51.7198 29.5812 52.059 29.9204 52.2989C30.263 52.5387 30.6571 52.6586 31.1025 52.6586C31.3663 52.6586 31.6148 52.6175 31.8478 52.5353C32.0808 52.4531 32.2692 52.3331 32.4131 52.1755C32.5605 52.0179 32.6341 51.8243 32.6341 51.5947C32.6341 51.4919 32.617 51.3977 32.5827 51.312C32.5485 51.223 32.4971 51.1441 32.4285 51.0756C32.3634 51.0071 32.2778 50.9454 32.1716 50.8906C32.0688 50.8323 31.9488 50.7827 31.8118 50.7415L29.8998 50.1762C29.7354 50.1282 29.5572 50.0648 29.3653 49.986C29.1768 49.9038 28.997 49.7924 28.8256 49.6519C28.6577 49.508 28.519 49.3264 28.4093 49.1071C28.3031 48.8844 28.25 48.6103 28.25 48.2848C28.25 47.8085 28.3699 47.4093 28.6098 47.0872C28.853 46.7617 29.1786 46.5184 29.5863 46.3574C29.9975 46.1963 30.4532 46.1175 30.9535 46.121C31.4606 46.1244 31.9129 46.2118 32.3103 46.3831C32.7078 46.551 33.0402 46.796 33.3074 47.1181C33.5747 47.4402 33.7631 47.8291 33.8728 48.2848L32.5416 48.5161C32.4868 48.2556 32.3806 48.0346 32.223 47.853C32.0688 47.668 31.8786 47.5275 31.6525 47.4316C31.4297 47.3356 31.1916 47.2842 30.938 47.2774C30.6913 47.274 30.4618 47.3117 30.2493 47.3905C30.0403 47.4659 29.8707 47.5755 29.7405 47.7194C29.6137 47.8633 29.5503 48.0312 29.5503 48.2231C29.5503 48.4047 29.6051 48.5537 29.7148 48.6702C29.8244 48.7833 29.9598 48.8741 30.1208 48.9427C30.2853 49.0078 30.4515 49.0626 30.6194 49.1071L31.9454 49.4772C32.127 49.5251 32.3309 49.5903 32.557 49.6725C32.7832 49.7547 33.0008 49.8695 33.2098 50.0168C33.4188 50.1642 33.5901 50.3578 33.7237 50.5976C33.8608 50.8375 33.9293 51.1424 33.9293 51.5125C33.9293 51.8963 33.8488 52.2338 33.6878 52.525C33.5301 52.8128 33.316 53.0527 33.0453 53.2446C32.7746 53.4364 32.4645 53.5804 32.115 53.6763C31.769 53.7722 31.4057 53.8202 31.0254 53.8202ZM38.2952 53.666C37.9286 53.7345 37.5688 53.7637 37.2159 53.7534C36.8664 53.7465 36.5529 53.6831 36.2754 53.5632C35.9978 53.4399 35.7871 53.2463 35.6432 52.9824C35.5164 52.7426 35.4496 52.4976 35.4427 52.2475C35.4359 51.9973 35.4324 51.7147 35.4324 51.3994V46.5733H36.666V51.3275C36.666 51.5502 36.6677 51.7455 36.6711 51.9134C36.678 52.0813 36.7139 52.2183 36.779 52.3246C36.9024 52.5301 37.0994 52.6449 37.3701 52.6689C37.6408 52.6929 37.9492 52.6792 38.2952 52.6278V53.666ZM34.4251 49.0866V48.1152H38.2952V49.0866H34.4251ZM41.7314 53.8202C41.1694 53.8202 40.676 53.6986 40.2511 53.4553C39.8263 53.212 39.4939 52.8745 39.254 52.4428C39.0176 52.011 38.8994 51.5142 38.8994 50.9523C38.8994 50.3458 39.0159 49.8198 39.2489 49.3744C39.4819 48.9255 39.8057 48.5777 40.2203 48.331C40.6349 48.0843 41.1146 47.961 41.6594 47.961C42.235 47.961 42.7233 48.0963 43.1242 48.367C43.5285 48.6343 43.8283 49.0129 44.0237 49.5029C44.219 49.9929 44.2926 50.5702 44.2447 51.2349H43.0163V50.7827C43.0129 50.1796 42.9066 49.7393 42.6976 49.4618C42.4886 49.1842 42.1597 49.0454 41.7108 49.0454C41.2037 49.0454 40.8268 49.2031 40.5801 49.5183C40.3334 49.8301 40.21 50.2875 40.21 50.8906C40.21 51.4525 40.3334 51.8877 40.5801 52.1961C40.8268 52.5044 41.1866 52.6586 41.6594 52.6586C41.9644 52.6586 42.2265 52.5918 42.4458 52.4582C42.6685 52.3211 42.8398 52.1241 42.9597 51.8671L44.183 52.2372C43.9705 52.7374 43.6416 53.1263 43.1962 53.4039C42.7542 53.6814 42.2659 53.8202 41.7314 53.8202ZM39.8194 51.2349V50.2995H43.6382V51.2349H39.8194ZM47.915 53.8202C47.3531 53.8202 46.8597 53.6986 46.4348 53.4553C46.0099 53.212 45.6776 52.8745 45.4377 52.4428C45.2013 52.011 45.0831 51.5142 45.0831 50.9523C45.0831 50.3458 45.1996 49.8198 45.4326 49.3744C45.6656 48.9255 45.9894 48.5777 46.404 48.331C46.8186 48.0843 47.2983 47.961 47.8431 47.961C48.4187 47.961 48.907 48.0963 49.3079 48.367C49.7122 48.6343 50.012 49.0129 50.2073 49.5029C50.4026 49.9929 50.4763 50.5702 50.4283 51.2349H49.2V50.7827C49.1965 50.1796 49.0903 49.7393 48.8813 49.4618C48.6723 49.1842 48.3433 49.0454 47.8945 49.0454C47.3874 49.0454 47.0105 49.2031 46.7637 49.5183C46.517 49.8301 46.3937 50.2875 46.3937 50.8906C46.3937 51.4525 46.517 51.8877 46.7637 52.1961C47.0105 52.5044 47.3702 52.6586 47.8431 52.6586C48.148 52.6586 48.4102 52.5918 48.6295 52.4582C48.8522 52.3211 49.0235 52.1241 49.1434 51.8671L50.3667 52.2372C50.1542 52.7374 49.8253 53.1263 49.3798 53.4039C48.9378 53.6814 48.4496 53.8202 47.915 53.8202ZM46.0031 51.2349V50.2995H49.8219V51.2349H46.0031ZM51.6779 53.666V46.1107H52.9166V53.666H51.6779ZM56.9797 53.8202C56.4178 53.8202 55.9244 53.6986 55.4995 53.4553C55.0746 53.212 54.7423 52.8745 54.5024 52.4428C54.266 52.011 54.1478 51.5142 54.1478 50.9523C54.1478 50.3458 54.2643 49.8198 54.4973 49.3744C54.7303 48.9255 55.0541 48.5777 55.4687 48.331C55.8833 48.0843 56.363 47.961 56.9078 47.961C57.4834 47.961 57.9717 48.0963 58.3726 48.367C58.7769 48.6343 59.0767 49.0129 59.272 49.5029C59.4673 49.9929 59.541 50.5702 59.493 51.2349H58.2647V50.7827C58.2612 50.1796 58.155 49.7393 57.946 49.4618C57.737 49.1842 57.408 49.0454 56.9592 49.0454C56.4521 49.0454 56.0752 49.2031 55.8285 49.5183C55.5817 49.8301 55.4584 50.2875 55.4584 50.8906C55.4584 51.4525 55.5817 51.8877 55.8285 52.1961C56.0752 52.5044 56.4349 52.6586 56.9078 52.6586C57.2127 52.6586 57.4749 52.5918 57.6942 52.4582C57.9169 52.3211 58.0882 52.1241 58.2081 51.8671L59.4314 52.2372C59.2189 52.7374 58.89 53.1263 58.4446 53.4039C58.0025 53.6814 57.5143 53.8202 56.9797 53.8202ZM55.0678 51.2349V50.2995H58.8866V51.2349H55.0678Z" fill="#111528"/>
<mask id="path-8-inside-1_3489_23355" fill="white">
<path d="M22.4258 67.6621H167.89V93.9415H22.4258V67.6621Z"/>
</mask>
<path d="M22.4258 67.6621V68.3046H167.89V67.6621V67.0196H22.4258V67.6621Z" fill="#E3E3E3" mask="url(#path-8-inside-1_3489_23355)"/>
<path d="M40.0292 85.9401H33.7331C33.5202 85.9401 33.3477 85.7675 33.3477 85.5546V79.2585C33.3477 79.0456 33.5202 78.873 33.7331 78.873H40.0292C40.2421 78.873 40.4147 79.0456 40.4147 79.2585V85.5546C40.4147 85.7675 40.2421 85.9401 40.0292 85.9401Z" stroke="#22A753" stroke-width="0.96369" stroke-linecap="round" stroke-linejoin="round"/>
<path d="M37.2038 78.8744V76.0476C37.2038 75.8347 37.0312 75.6621 36.8183 75.6621H30.5222C30.3093 75.6621 30.1367 75.8347 30.1367 76.0476V82.3437C30.1367 82.5566 30.3093 82.7292 30.5222 82.7292H33.349" stroke="#22A753" stroke-width="0.96369" stroke-linecap="round" stroke-linejoin="round"/>
<path d="M51.841 84.9569C51.1043 84.9569 50.4824 84.7942 49.9753 84.4687C49.4682 84.1397 49.0844 83.6857 48.824 83.1066C48.5636 82.5276 48.4334 81.8594 48.4334 81.1022C48.4334 80.3449 48.5636 79.6768 48.824 79.0977C49.0844 78.5186 49.4682 78.0663 49.9753 77.7408C50.4824 77.4119 51.1043 77.2474 51.841 77.2474C52.701 77.2474 53.4034 77.4684 53.9483 77.9104C54.4931 78.349 54.8665 78.9384 55.0687 79.6785L54.2978 79.8789C54.1401 79.293 53.8575 78.8287 53.4497 78.4861C53.042 78.1434 52.5057 77.9721 51.841 77.9721C51.2619 77.9721 50.7805 78.104 50.3967 78.3679C50.013 78.6317 49.7234 79 49.5281 79.4729C49.3363 79.9423 49.2369 80.4854 49.23 81.1022C49.2266 81.7189 49.3208 82.262 49.5127 82.7314C49.708 83.2009 49.9993 83.5692 50.3865 83.8365C50.7771 84.1003 51.2619 84.2322 51.841 84.2322C52.5057 84.2322 53.042 84.0609 53.4497 83.7183C53.8575 83.3722 54.1401 82.9079 54.2978 82.3254L55.0687 82.5259C54.8665 83.266 54.4931 83.857 53.9483 84.299C53.4034 84.7376 52.701 84.9569 51.841 84.9569ZM58.5207 84.9569C57.9691 84.9569 57.4979 84.8319 57.1073 84.5817C56.7167 84.3316 56.4169 83.9855 56.2079 83.5435C55.9989 83.1015 55.8943 82.5944 55.8943 82.0222C55.8943 81.4397 56.0006 80.9291 56.213 80.4905C56.4254 80.052 56.727 79.711 57.1176 79.4677C57.5116 79.221 57.9793 79.0977 58.5207 79.0977C59.0758 79.0977 59.5487 79.2228 59.9393 79.4729C60.3333 79.7196 60.6331 80.064 60.8387 80.506C61.0477 80.9445 61.1522 81.45 61.1522 82.0222C61.1522 82.6047 61.0477 83.1169 60.8387 83.5589C60.6297 83.9975 60.3282 84.3402 59.9341 84.5869C59.5401 84.8336 59.069 84.9569 58.5207 84.9569ZM58.5207 84.2322C59.1375 84.2322 59.5966 84.0284 59.8982 83.6206C60.1997 83.2094 60.3504 82.6766 60.3504 82.0222C60.3504 81.3506 60.198 80.8161 59.893 80.4186C59.5915 80.0211 59.1341 79.8224 58.5207 79.8224C58.1061 79.8224 57.7635 79.9166 57.4928 80.1051C57.2255 80.2901 57.0251 80.5488 56.8914 80.8812C56.7612 81.2101 56.6961 81.5904 56.6961 82.0222C56.6961 82.6903 56.8503 83.2266 57.1587 83.6309C57.4671 84.0318 57.9211 84.2322 58.5207 84.2322ZM64.7788 84.9569C64.2682 84.9569 63.8365 84.8284 63.4836 84.5714C63.1306 84.311 62.8634 83.9598 62.6818 83.5178C62.5002 83.0724 62.4094 82.5738 62.4094 82.0222C62.4094 81.4602 62.5002 80.96 62.6818 80.5214C62.8668 80.0794 63.1375 79.7316 63.4938 79.478C63.8502 79.2245 64.2888 79.0977 64.8096 79.0977C65.3167 79.0977 65.7519 79.2262 66.1151 79.4832C66.4783 79.7402 66.7558 80.0896 66.9477 80.5317C67.143 80.9737 67.2407 81.4705 67.2407 82.0222C67.2407 82.5773 67.143 83.0758 66.9477 83.5178C66.7524 83.9598 66.4714 84.311 66.1048 84.5714C65.7382 84.8284 65.2962 84.9569 64.7788 84.9569ZM62.2809 87.2698V79.2519H62.9593V83.4304H63.0416V87.2698H62.2809ZM64.7017 84.2528C65.0889 84.2528 65.4109 84.1551 65.6679 83.9598C65.9249 83.7645 66.1168 83.499 66.2436 83.1632C66.3738 82.824 66.4389 82.4436 66.4389 82.0222C66.4389 81.6041 66.3755 81.2272 66.2487 80.8914C66.1219 80.5556 65.9283 80.2901 65.6679 80.0948C65.4109 79.8995 65.0837 79.8018 64.6862 79.8018C64.2991 79.8018 63.977 79.8961 63.72 80.0845C63.4664 80.273 63.2763 80.5351 63.1495 80.8709C63.0227 81.2032 62.9593 81.587 62.9593 82.0222C62.9593 82.4505 63.0227 82.8342 63.1495 83.1735C63.2763 83.5092 63.4681 83.7731 63.7251 83.965C63.9821 84.1568 64.3076 84.2528 64.7017 84.2528ZM68.9601 87.2698L70.0342 84.3556L70.0497 85.219L67.6186 79.2519H68.4204L70.4146 84.2425H70.0856L71.9256 79.2519H72.6966L69.7156 87.2698H68.9601ZM78.1399 84.9569C77.6294 84.9569 77.1976 84.8284 76.8447 84.5714C76.4918 84.311 76.2245 83.9598 76.0429 83.5178C75.8613 83.0724 75.7705 82.5738 75.7705 82.0222C75.7705 81.4602 75.8613 80.96 76.0429 80.5214C76.228 80.0794 76.4986 79.7316 76.855 79.478C77.2114 79.2245 77.6499 79.0977 78.1708 79.0977C78.6779 79.0977 79.113 79.2262 79.4762 79.4832C79.8394 79.7402 80.117 80.0896 80.3089 80.5317C80.5042 80.9737 80.6018 81.4705 80.6018 82.0222C80.6018 82.5773 80.5042 83.0758 80.3089 83.5178C80.1136 83.9598 79.8326 84.311 79.466 84.5714C79.0993 84.8284 78.6573 84.9569 78.1399 84.9569ZM75.642 87.2698V79.2519H76.3205V83.4304H76.4027V87.2698H75.642ZM78.0628 84.2528C78.45 84.2528 78.7721 84.1551 79.0291 83.9598C79.2861 83.7645 79.4779 83.499 79.6047 83.1632C79.7349 82.824 79.8 82.4436 79.8 82.0222C79.8 81.6041 79.7366 81.2272 79.6099 80.8914C79.4831 80.5556 79.2895 80.2901 79.0291 80.0948C78.7721 79.8995 78.4449 79.8018 78.0474 79.8018C77.6602 79.8018 77.3381 79.8961 77.0811 80.0845C76.8276 80.273 76.6374 80.5351 76.5106 80.8709C76.3839 81.2032 76.3205 81.587 76.3205 82.0222C76.3205 82.4505 76.3839 82.8342 76.5106 83.1735C76.6374 83.5092 76.8293 83.7731 77.0863 83.965C77.3433 84.1568 77.6688 84.2528 78.0628 84.2528ZM83.3186 84.9569C82.9006 84.9569 82.5494 84.8815 82.265 84.7308C81.984 84.58 81.7733 84.3796 81.6328 84.1294C81.4923 83.8793 81.4221 83.6069 81.4221 83.3122C81.4221 83.0107 81.482 82.7537 81.602 82.5413C81.7253 82.3254 81.8915 82.1489 82.1005 82.0119C82.313 81.8748 82.558 81.7703 82.8355 81.6984C83.1165 81.6298 83.4266 81.5699 83.7658 81.5185C84.1084 81.4637 84.4425 81.4174 84.768 81.3797C85.097 81.3386 85.3848 81.2992 85.6315 81.2615L85.3642 81.426C85.3745 80.8777 85.2683 80.4717 85.0456 80.2079C84.8228 79.944 84.4356 79.8121 83.884 79.8121C83.5037 79.8121 83.1816 79.8978 82.9177 80.0691C82.6573 80.2404 82.474 80.5111 82.3678 80.8812L81.6328 80.6653C81.7596 80.1685 82.0149 79.783 82.3986 79.5089C82.7824 79.2347 83.2809 79.0977 83.8943 79.0977C84.4014 79.0977 84.8314 79.1936 85.1843 79.3855C85.5407 79.574 85.7925 79.8481 85.9399 80.2079C86.0084 80.3689 86.0529 80.5488 86.0735 80.7475C86.0941 80.9463 86.1043 81.1484 86.1043 81.354V84.8027H85.431V83.4099L85.6263 83.4921C85.4379 83.9684 85.1449 84.3316 84.7475 84.5817C84.35 84.8319 83.8737 84.9569 83.3186 84.9569ZM83.406 84.3042C83.7589 84.3042 84.0673 84.2408 84.3311 84.114C84.595 83.9872 84.8074 83.8142 84.9685 83.5949C85.1295 83.3722 85.234 83.1221 85.282 82.8445C85.3231 82.6663 85.3454 82.471 85.3488 82.2586C85.3522 82.0427 85.3539 81.8817 85.3539 81.7755L85.6418 81.9245C85.3848 81.9588 85.1055 81.993 84.804 82.0273C84.5059 82.0616 84.2112 82.101 83.92 82.1455C83.6321 82.1901 83.3717 82.2432 83.1387 82.3049C82.9811 82.3494 82.8286 82.4128 82.6813 82.495C82.534 82.5738 82.4123 82.68 82.3164 82.8137C82.2239 82.9473 82.1776 83.1135 82.1776 83.3122C82.1776 83.4733 82.217 83.6292 82.2958 83.7799C82.3781 83.9307 82.5083 84.0558 82.6864 84.1551C82.868 84.2545 83.1079 84.3042 83.406 84.3042ZM87.9227 87.2698L88.9968 84.3556L89.0123 85.219L86.5812 79.2519H87.383L89.3772 84.2425H89.0482L90.8883 79.2519H91.6592L88.6782 87.2698H87.9227ZM99.1718 84.8027L99.1769 81.1587C99.1769 80.7304 99.057 80.3946 98.8172 80.1513C98.5807 79.9046 98.2792 79.7813 97.9126 79.7813C97.7036 79.7813 97.4997 79.8292 97.301 79.9252C97.1022 80.0211 96.9378 80.1753 96.8076 80.3878C96.6808 80.6002 96.6174 80.8777 96.6174 81.2204L96.1702 81.0919C96.16 80.6944 96.237 80.3466 96.4015 80.0485C96.5694 79.7504 96.799 79.5191 97.0902 79.3547C97.3849 79.1868 97.7173 79.1028 98.0873 79.1028C98.6458 79.1028 99.093 79.2759 99.4288 79.6219C99.7646 79.9646 99.9325 80.4289 99.9325 81.0148L99.9273 84.8027H99.1718ZM92.5468 84.8027V79.2519H93.2252V80.619H93.3074V84.8027H92.5468ZM95.867 84.8027L95.8721 81.2101C95.8721 80.7681 95.7539 80.4203 95.5175 80.1667C95.2845 79.9098 94.9761 79.7813 94.5924 79.7813C94.2086 79.7813 93.8985 79.9132 93.6621 80.177C93.4256 80.4374 93.3074 80.7852 93.3074 81.2204L92.8551 80.9737C92.8551 80.6173 92.9391 80.2987 93.107 80.0177C93.2749 79.7333 93.5045 79.5106 93.7957 79.3495C94.0869 79.1851 94.4176 79.1028 94.7877 79.1028C95.1406 79.1028 95.4541 79.1782 95.7282 79.329C96.0058 79.4797 96.2233 79.699 96.381 79.9869C96.5386 80.2747 96.6174 80.6242 96.6174 81.0353L96.6122 84.8027H95.867ZM103.584 84.9569C103.043 84.9569 102.573 84.837 102.176 84.5971C101.782 84.3573 101.475 84.0198 101.256 83.5846C101.036 83.1495 100.927 82.6389 100.927 82.053C100.927 81.4465 101.035 80.9223 101.251 80.4803C101.466 80.0383 101.77 79.6973 102.16 79.4575C102.554 79.2176 103.019 79.0977 103.553 79.0977C104.101 79.0977 104.569 79.2245 104.956 79.478C105.343 79.7282 105.636 80.0879 105.835 80.5574C106.034 81.0268 106.125 81.587 106.108 82.238H105.337V81.9708C105.323 81.2512 105.167 80.7081 104.869 80.3415C104.574 79.9749 104.142 79.7915 103.574 79.7915C102.977 79.7915 102.52 79.9851 102.201 80.3723C101.886 80.7595 101.729 81.3112 101.729 82.0273C101.729 82.7263 101.886 83.2694 102.201 83.6566C102.52 84.0403 102.971 84.2322 103.553 84.2322C103.951 84.2322 104.297 84.1414 104.591 83.9598C104.889 83.7748 105.124 83.5092 105.295 83.1632L106 83.4356C105.78 83.9187 105.457 84.2939 105.028 84.5612C104.603 84.825 104.122 84.9569 103.584 84.9569ZM101.461 82.238V81.6059H105.702V82.238H101.461ZM111.107 84.8027V81.9708C111.107 81.6624 111.077 81.3797 111.019 81.1227C110.961 80.8623 110.867 80.6362 110.736 80.4443C110.61 80.249 110.444 80.0982 110.238 79.992C110.036 79.8858 109.789 79.8327 109.498 79.8327C109.231 79.8327 108.994 79.8789 108.789 79.9714C108.586 80.064 108.415 80.1976 108.275 80.3723C108.138 80.5437 108.033 80.7527 107.961 80.9994C107.889 81.2461 107.853 81.527 107.853 81.8423L107.319 81.7241C107.319 81.1553 107.418 80.6773 107.617 80.2901C107.815 79.9029 108.09 79.6099 108.439 79.4112C108.789 79.2125 109.189 79.1131 109.642 79.1131C109.974 79.1131 110.264 79.1645 110.51 79.2673C110.76 79.3701 110.971 79.5089 111.143 79.6836C111.317 79.8584 111.458 80.0588 111.564 80.285C111.67 80.5077 111.747 80.7458 111.795 80.9994C111.843 81.2495 111.867 81.4996 111.867 81.7498V84.8027H111.107ZM107.092 84.8027V79.2519H107.776V80.619H107.853V84.8027H107.092ZM116.223 84.8027C115.911 84.8678 115.603 84.8935 115.298 84.8798C114.996 84.8661 114.726 84.801 114.486 84.6845C114.249 84.568 114.07 84.3864 113.946 84.1397C113.847 83.9341 113.792 83.7268 113.782 83.5178C113.775 83.3054 113.771 83.0638 113.771 82.7931V77.71H114.522V82.7623C114.522 82.9953 114.524 83.1906 114.527 83.3482C114.534 83.5024 114.57 83.6395 114.635 83.7594C114.758 83.989 114.954 84.126 115.221 84.1706C115.492 84.2151 115.826 84.2048 116.223 84.1397V84.8027ZM112.584 79.8995V79.2519H116.223V79.8995H112.584ZM119.477 84.8027V77.2474H120.233V84.8027H119.477ZM121.877 78.1982V77.3502H122.632V78.1982H121.877ZM121.877 84.8027V79.2519H122.632V84.8027H121.877ZM128.182 84.8027V81.9708C128.182 81.6624 128.153 81.3797 128.095 81.1227C128.036 80.8623 127.942 80.6362 127.812 80.4443C127.685 80.249 127.519 80.0982 127.313 79.992C127.111 79.8858 126.864 79.8327 126.573 79.8327C126.306 79.8327 126.07 79.8789 125.864 79.9714C125.662 80.064 125.49 80.1976 125.35 80.3723C125.213 80.5437 125.108 80.7527 125.036 80.9994C124.964 81.2461 124.929 81.527 124.929 81.8423L124.394 81.7241C124.394 81.1553 124.493 80.6773 124.692 80.2901C124.891 79.9029 125.165 79.6099 125.514 79.4112C125.864 79.2125 126.265 79.1131 126.717 79.1131C127.049 79.1131 127.339 79.1645 127.586 79.2673C127.836 79.3701 128.047 79.5089 128.218 79.6836C128.393 79.8584 128.533 80.0588 128.639 80.285C128.746 80.5077 128.823 80.7458 128.871 80.9994C128.919 81.2495 128.943 81.4996 128.943 81.7498V84.8027H128.182ZM124.168 84.8027V79.2519H124.851V80.619H124.929V84.8027H124.168ZM130.271 84.8027L130.276 77.4016H131.037V81.9245L133.514 79.2519H134.522L131.921 82.0273L134.861 84.8027H133.761L131.037 82.1301V84.8027H130.271Z" fill="#22A753"/>
<path d="M148.664 61.2906C148.284 61.2906 147.942 61.2021 147.636 61.0251C147.333 60.848 147.094 60.6082 146.916 60.3055C146.739 60 146.651 59.6573 146.651 59.2776V56.879C146.651 56.4993 146.739 56.1581 146.916 55.8554C147.094 55.5499 147.333 55.3086 147.636 55.1316C147.942 54.9545 148.284 54.866 148.664 54.866C149.044 54.866 149.385 54.9545 149.688 55.1316C149.993 55.3086 150.234 55.5499 150.411 55.8554C150.589 56.1581 150.677 56.4993 150.677 56.879V59.2776C150.677 59.6573 150.589 60 150.411 60.3055C150.234 60.6082 149.993 60.848 149.688 61.0251C149.385 61.2021 149.044 61.2906 148.664 61.2906ZM148.664 60.6824C148.918 60.6824 149.149 60.621 149.358 60.4982C149.566 60.3726 149.732 60.2056 149.855 59.9971C149.977 59.7887 150.039 59.5588 150.039 59.3075V56.8491C150.039 56.5949 149.977 56.3636 149.855 56.1552C149.732 55.9468 149.566 55.7812 149.358 55.6584C149.149 55.5327 148.918 55.4699 148.664 55.4699C148.41 55.4699 148.179 55.5327 147.97 55.6584C147.762 55.7812 147.596 55.9468 147.473 56.1552C147.351 56.3636 147.289 56.5949 147.289 56.8491V59.3075C147.289 59.5588 147.351 59.7887 147.473 59.9971C147.596 60.2056 147.762 60.3726 147.97 60.4982C148.179 60.621 148.41 60.6824 148.664 60.6824ZM153.845 61.2906C153.46 61.2906 153.119 61.2135 152.822 61.0593C152.527 60.9051 152.296 60.6895 152.128 60.4126C151.962 60.1327 151.879 59.8058 151.879 59.4318C151.879 59.0491 151.972 58.7093 152.158 58.4124C152.343 58.1126 152.626 57.8856 153.006 57.7314L152.997 57.9798C152.68 57.8627 152.439 57.6714 152.273 57.4059C152.108 57.1403 152.025 56.8462 152.025 56.5235C152.025 56.1809 152.103 55.8868 152.26 55.6412C152.418 55.3928 152.632 55.2015 152.903 55.0673C153.177 54.9331 153.491 54.866 153.845 54.866C154.199 54.866 154.513 54.9331 154.787 55.0673C155.062 55.2015 155.277 55.3928 155.434 55.6412C155.591 55.8868 155.67 56.1809 155.67 56.5235C155.67 56.8462 155.59 57.1389 155.43 57.4016C155.273 57.6643 155.032 57.857 154.706 57.9798L154.685 57.7314C155.064 57.8827 155.349 58.1083 155.537 58.4081C155.728 58.7079 155.824 59.0491 155.824 59.4318C155.824 59.8058 155.74 60.1327 155.571 60.4126C155.403 60.6895 155.17 60.9051 154.873 61.0593C154.576 61.2135 154.234 61.2906 153.845 61.2906ZM153.845 60.6867C154.234 60.6867 154.549 60.5796 154.792 60.3655C155.034 60.1485 155.156 59.8372 155.156 59.4318C155.156 59.0206 155.036 58.7093 154.796 58.498C154.556 58.2839 154.239 58.1768 153.845 58.1768C153.451 58.1768 153.136 58.2839 152.899 58.498C152.662 58.7093 152.543 59.0206 152.543 59.4318C152.543 59.8372 152.663 60.1485 152.903 60.3655C153.143 60.5796 153.457 60.6867 153.845 60.6867ZM153.845 57.5686C154.188 57.5686 154.466 57.4815 154.68 57.3074C154.895 57.1303 155.002 56.869 155.002 56.5235C155.002 56.178 154.895 55.9196 154.68 55.7483C154.466 55.5741 154.188 55.487 153.845 55.487C153.503 55.487 153.224 55.5741 153.01 55.7483C152.799 55.9196 152.693 56.178 152.693 56.5235C152.693 56.869 152.799 57.1303 153.01 57.3074C153.224 57.4815 153.503 57.5686 153.845 57.5686ZM157.362 60.4768V59.7444H158.095V60.4768H157.362ZM157.367 57.9541V57.2217H158.099V57.9541H157.367ZM159.494 61.1578L159.498 60.5839L162.286 58.0655C162.526 57.8484 162.685 57.6429 162.762 57.4487C162.842 57.2517 162.882 57.0461 162.882 56.8319C162.882 56.5778 162.822 56.3479 162.702 56.1424C162.582 55.9368 162.421 55.774 162.218 55.6541C162.015 55.5313 161.788 55.4699 161.537 55.4699C161.274 55.4699 161.04 55.5327 160.834 55.6584C160.629 55.784 160.466 55.9496 160.346 56.1552C160.229 56.3608 160.172 56.5849 160.175 56.8276H159.532C159.532 56.4536 159.621 56.1181 159.798 55.8211C159.975 55.5242 160.215 55.2915 160.517 55.123C160.82 54.9517 161.163 54.866 161.545 54.866C161.919 54.866 162.255 54.9545 162.552 55.1316C162.852 55.3057 163.087 55.5427 163.259 55.8425C163.433 56.1395 163.52 56.4707 163.52 56.8362C163.52 57.0932 163.488 57.3202 163.426 57.5172C163.366 57.7114 163.27 57.8927 163.139 58.0612C163.01 58.2268 162.846 58.3981 162.646 58.5751L160.171 60.8109L160.072 60.5539H163.52V61.1578H159.494ZM167.184 61.1621V59.9671H164.298V59.3675L166.362 54.9945H167.069L165.004 59.3675H167.184V57.5686H167.818V59.3675H168.491V59.9671H167.818V61.1621H167.184Z" fill="black" fill-opacity="0.5"/>
</g>
<defs>
<filter id="filter0_d_3489_23355" x="0" y="0" width="177.738" height="111.877" filterUnits="userSpaceOnUse" color-interpolation-filters="sRGB">
<feFlood flood-opacity="0" result="BackgroundImageFix"/>
<feColorMatrix in="SourceAlpha" type="matrix" values="0 0 0 0 0 0 0 0 0 0 0 0 0 0 0 0 0 0 127 0" result="hardAlpha"/>
<feOffset dy="6"/>
<feGaussianBlur stdDeviation="1.5"/>
<feComposite in2="hardAlpha" operator="out"/>
<feColorMatrix type="matrix" values="0 0 0 0 0.760748 0 0 0 0 0.761889 0 0 0 0 0.764423 0 0 0 0.3 0"/>
<feBlend mode="normal" in2="BackgroundImageFix" result="effect1_dropShadow_3489_23355"/>
<feBlend mode="normal" in="SourceGraphic" in2="effect1_dropShadow_3489_23355" result="shape"/>
</filter>
</defs>
</svg>
