<svg width="200" height="73" viewBox="0 0 200 73" fill="none" xmlns="http://www.w3.org/2000/svg">
<rect x="0.425781" y="0.423828" width="184.386" height="66.9944" rx="7.70952" fill="#D0FECF"/>
<rect x="0.21377" y="0.211816" width="184.81" height="67.4185" rx="7.92153" stroke="black" stroke-opacity="0.06" stroke-width="0.424023"/>
<path d="M9.21149 8.55589H9.98758L8.01395 15.957H7.23786L9.21149 8.55589ZM60.2063 16.1112C59.6957 16.1112 59.264 15.9827 58.9111 15.7257C58.5581 15.4653 58.2909 15.1141 58.1093 14.6721C57.9277 14.2267 57.8369 13.7281 57.8369 13.1765C57.8369 12.6145 57.9277 12.1143 58.1093 11.6757C58.2943 11.2337 58.565 10.8859 58.9213 10.6323C59.2777 10.3788 59.7163 10.252 60.2371 10.252C60.7442 10.252 61.1794 10.3805 61.5426 10.6375C61.9058 10.8944 62.1833 11.2439 62.3752 11.686C62.5705 12.128 62.6682 12.6248 62.6682 13.1765C62.6682 13.7316 62.5705 14.2301 62.3752 14.6721C62.1799 15.1141 61.8989 15.4653 61.5323 15.7257C61.1657 15.9827 60.7237 16.1112 60.2063 16.1112ZM57.7084 18.4241V10.4062H58.3868V14.5847H58.469V18.4241H57.7084ZM60.1292 15.4071C60.5164 15.4071 60.8384 15.3094 61.0954 15.1141C61.3524 14.9188 61.5443 14.6533 61.6711 14.3175C61.8013 13.9783 61.8664 13.5979 61.8664 13.1765C61.8664 12.7584 61.803 12.3815 61.6762 12.0457C61.5494 11.7099 61.3558 11.4444 61.0954 11.2491C60.8384 11.0538 60.5112 10.9561 60.1137 10.9561C59.7266 10.9561 59.4045 11.0504 59.1475 11.2388C58.8939 11.4273 58.7038 11.6894 58.577 12.0252C58.4502 12.3575 58.3868 12.7413 58.3868 13.1765C58.3868 13.6048 58.4502 13.9885 58.577 14.3278C58.7038 14.6635 58.8956 14.9274 59.1526 15.1193C59.4096 15.3111 59.7351 15.4071 60.1292 15.4071ZM65.385 16.1112C64.9669 16.1112 64.6157 16.0358 64.3313 15.8851C64.0504 15.7343 63.8396 15.5339 63.6992 15.2837C63.5587 15.0336 63.4884 14.7612 63.4884 14.4665C63.4884 14.165 63.5484 13.908 63.6683 13.6956C63.7917 13.4797 63.9578 13.3032 64.1669 13.1662C64.3793 13.0291 64.6243 12.9246 64.9018 12.8527C65.1828 12.7841 65.4929 12.7242 65.8321 12.6728C66.1748 12.618 66.5088 12.5717 66.8344 12.534C67.1633 12.4929 67.4511 12.4535 67.6978 12.4158L67.4306 12.5803C67.4408 12.032 67.3346 11.626 67.1119 11.3622C66.8892 11.0983 66.502 10.9664 65.9503 10.9664C65.57 10.9664 65.2479 11.0521 64.9841 11.2234C64.7237 11.3947 64.5403 11.6654 64.4341 12.0355L63.6992 11.8196C63.8259 11.3228 64.0812 10.9373 64.465 10.6632C64.8487 10.389 65.3473 10.252 65.9606 10.252C66.4677 10.252 66.8977 10.3479 67.2507 10.5398C67.607 10.7283 67.8589 11.0024 68.0062 11.3622C68.0747 11.5232 68.1193 11.7031 68.1398 11.9018C68.1604 12.1006 68.1707 12.3027 68.1707 12.5083V15.957H67.4974V14.5642L67.6927 14.6464C67.5042 15.1227 67.2113 15.4859 66.8138 15.736C66.4163 15.9862 65.9401 16.1112 65.385 16.1112ZM65.4723 15.4585C65.8253 15.4585 66.1336 15.3951 66.3975 15.2683C66.6613 15.1415 66.8738 14.9685 67.0348 14.7492C67.1958 14.5265 67.3004 14.2764 67.3483 13.9988C67.3894 13.8206 67.4117 13.6253 67.4151 13.4129C67.4186 13.197 67.4203 13.036 67.4203 12.9298L67.7081 13.0788C67.4511 13.1131 67.1719 13.1473 66.8703 13.1816C66.5722 13.2159 66.2776 13.2553 65.9863 13.2998C65.6985 13.3444 65.4381 13.3975 65.2051 13.4591C65.0475 13.5037 64.895 13.5671 64.7476 13.6493C64.6003 13.7281 64.4787 13.8343 64.3827 13.968C64.2902 14.1016 64.244 14.2678 64.244 14.4665C64.244 14.6276 64.2834 14.7835 64.3622 14.9342C64.4444 15.085 64.5746 15.2101 64.7528 15.3094C64.9344 15.4088 65.1742 15.4585 65.4723 15.4585ZM69.989 18.4241L71.0632 15.5099L71.0786 16.3733L68.6475 10.4062H69.4493L71.4435 15.3968H71.1146L72.9546 10.4062H73.7255L70.7445 18.4241H69.989ZM81.2381 15.957L81.2433 12.313C81.2433 11.8847 81.1234 11.5489 80.8835 11.3056C80.6471 11.0589 80.3456 10.9356 79.9789 10.9356C79.7699 10.9356 79.566 10.9835 79.3673 11.0795C79.1686 11.1754 79.0041 11.3296 78.8739 11.542C78.7471 11.7545 78.6837 12.032 78.6837 12.3747L78.2366 12.2462C78.2263 11.8487 78.3034 11.5009 78.4679 11.2028C78.6358 10.9047 78.8653 10.6734 79.1566 10.509C79.4512 10.3411 79.7836 10.2571 80.1537 10.2571C80.7122 10.2571 81.1593 10.4302 81.4951 10.7762C81.8309 11.1189 81.9988 11.5832 81.9988 12.1691L81.9937 15.957H81.2381ZM74.6131 15.957V10.4062H75.2915V11.7733H75.3738V15.957H74.6131ZM77.9333 15.957L77.9385 12.3644C77.9385 11.9224 77.8203 11.5746 77.5838 11.321C77.3508 11.0641 77.0425 10.9356 76.6587 10.9356C76.2749 10.9356 75.9648 11.0675 75.7284 11.3313C75.492 11.5917 75.3738 11.9395 75.3738 12.3747L74.9215 12.128C74.9215 11.7716 75.0054 11.453 75.1733 11.172C75.3412 10.8876 75.5708 10.6649 75.862 10.5038C76.1533 10.3394 76.4839 10.2571 76.854 10.2571C77.2069 10.2571 77.5204 10.3325 77.7946 10.4833C78.0721 10.634 78.2897 10.8533 78.4473 11.1412C78.6049 11.429 78.6837 11.7785 78.6837 12.1896L78.6786 15.957H77.9333ZM85.6503 16.1112C85.1089 16.1112 84.6395 15.9913 84.242 15.7514C83.848 15.5116 83.5413 15.1741 83.322 14.7389C83.1027 14.3038 82.9931 13.7932 82.9931 13.2073C82.9931 12.6008 83.101 12.0766 83.3169 11.6346C83.5328 11.1925 83.836 10.8516 84.2266 10.6118C84.6207 10.3719 85.0849 10.252 85.6195 10.252C86.1677 10.252 86.6354 10.3788 87.0226 10.6323C87.4098 10.8825 87.7028 11.2422 87.9015 11.7117C88.1002 12.1811 88.191 12.7413 88.1739 13.3923H87.4029V13.1251C87.3892 12.4055 87.2333 11.8624 86.9352 11.4958C86.6406 11.1292 86.2088 10.9458 85.64 10.9458C85.0438 10.9458 84.5864 11.1394 84.2677 11.5266C83.9525 11.9138 83.7949 12.4655 83.7949 13.1816C83.7949 13.8806 83.9525 14.4237 84.2677 14.8109C84.5864 15.1946 85.037 15.3865 85.6195 15.3865C86.0169 15.3865 86.363 15.2957 86.6577 15.1141C86.9558 14.9291 87.1905 14.6635 87.3618 14.3175L88.066 14.5899C87.8467 15.073 87.5229 15.4482 87.0946 15.7155C86.6697 15.9793 86.1883 16.1112 85.6503 16.1112ZM83.5276 13.3923V12.7602H87.7679V13.3923H83.5276ZM93.1729 15.957V13.1251C93.1729 12.8167 93.1438 12.534 93.0855 12.277C93.0273 12.0166 92.933 11.7905 92.8028 11.5986C92.676 11.4033 92.5099 11.2525 92.3043 11.1463C92.1021 11.0401 91.8554 10.987 91.5642 10.987C91.2969 10.987 91.0605 11.0332 90.8549 11.1257C90.6527 11.2182 90.4814 11.3519 90.3409 11.5266C90.2039 11.698 90.0994 11.907 90.0274 12.1537C89.9554 12.4004 89.9195 12.6813 89.9195 12.9966L89.3849 12.8784C89.3849 12.3096 89.4843 11.8316 89.683 11.4444C89.8818 11.0572 90.1559 10.7642 90.5054 10.5655C90.8549 10.3668 91.2558 10.2674 91.7081 10.2674C92.0404 10.2674 92.33 10.3188 92.5767 10.4216C92.8268 10.5244 93.0375 10.6632 93.2089 10.8379C93.3836 11.0127 93.5241 11.2131 93.6303 11.4393C93.7365 11.662 93.8136 11.9001 93.8616 12.1537C93.9096 12.4038 93.9336 12.6539 93.9336 12.9041V15.957H93.1729ZM89.1588 15.957V10.4062H89.8424V11.7733H89.9195V15.957H89.1588ZM98.2894 15.957C97.9776 16.0221 97.6692 16.0478 97.3643 16.0341C97.0628 16.0204 96.7921 15.9553 96.5522 15.8388C96.3158 15.7223 96.1359 15.5407 96.0126 15.294C95.9132 15.0884 95.8584 14.8811 95.8481 14.6721C95.8412 14.4597 95.8378 14.2181 95.8378 13.9474V8.86427H96.5882V13.9166C96.5882 14.1496 96.5899 14.3449 96.5933 14.5025C96.6002 14.6567 96.6362 14.7938 96.7013 14.9137C96.8246 15.1432 97.0199 15.2803 97.2872 15.3249C97.5579 15.3694 97.892 15.3591 98.2894 15.294V15.957ZM94.6505 11.0538V10.4062H98.2894V11.0538H94.6505ZM101.544 15.957V8.4017H102.299V15.957H101.544ZM103.943 9.35254V8.5045H104.698V9.35254H103.943ZM103.943 15.957V10.4062H104.698V15.957H103.943ZM110.248 15.957V13.1251C110.248 12.8167 110.219 12.534 110.161 12.277C110.103 12.0166 110.008 11.7905 109.878 11.5986C109.751 11.4033 109.585 11.2525 109.38 11.1463C109.177 11.0401 108.931 10.987 108.64 10.987C108.372 10.987 108.136 11.0332 107.93 11.1257C107.728 11.2182 107.557 11.3519 107.416 11.5266C107.279 11.698 107.175 11.907 107.103 12.1537C107.031 12.4004 106.995 12.6813 106.995 12.9966L106.46 12.8784C106.46 12.3096 106.56 11.8316 106.758 11.4444C106.957 11.0572 107.231 10.7642 107.581 10.5655C107.93 10.3668 108.331 10.2674 108.783 10.2674C109.116 10.2674 109.405 10.3188 109.652 10.4216C109.902 10.5244 110.113 10.6632 110.284 10.8379C110.459 11.0127 110.599 11.2131 110.706 11.4393C110.812 11.662 110.889 11.9001 110.937 12.1537C110.985 12.4038 111.009 12.6539 111.009 12.9041V15.957H110.248ZM106.234 15.957V10.4062H106.918V11.7733H106.995V15.957H106.234ZM112.338 15.957L112.343 8.55589H113.103V13.0788L115.581 10.4062H116.588L113.987 13.1816L116.927 15.957H115.827L113.103 13.2844V15.957H112.338ZM120.05 15.957V9.995C120.05 9.85109 120.057 9.7089 120.071 9.56841C120.088 9.42793 120.12 9.29429 120.168 9.16752C120.216 9.03731 120.292 8.91738 120.394 8.80774C120.507 8.68439 120.631 8.5953 120.764 8.54047C120.898 8.48223 121.037 8.44453 121.181 8.4274C121.328 8.41027 121.472 8.4017 121.612 8.4017H122.322V9.03902H121.664C121.376 9.03902 121.16 9.10927 121.016 9.24975C120.876 9.39024 120.806 9.61124 120.806 9.91277V15.957H120.05ZM119.089 11.0538V10.4062H122.322V11.0538H119.089ZM125.261 16.1112C124.71 16.1112 124.238 15.9862 123.848 15.736C123.457 15.4859 123.157 15.1398 122.948 14.6978C122.739 14.2558 122.635 13.7487 122.635 13.1765C122.635 12.594 122.741 12.0834 122.954 11.6448C123.166 11.2063 123.468 10.8653 123.858 10.622C124.252 10.3753 124.72 10.252 125.261 10.252C125.816 10.252 126.289 10.3771 126.68 10.6272C127.074 10.8739 127.374 11.2182 127.579 11.6603C127.788 12.0988 127.893 12.6042 127.893 13.1765C127.893 13.759 127.788 14.2712 127.579 14.7132C127.37 15.1518 127.069 15.4945 126.675 15.7412C126.281 15.9879 125.809 16.1112 125.261 16.1112ZM125.261 15.3865C125.878 15.3865 126.337 15.1827 126.639 14.7749C126.94 14.3637 127.091 13.8309 127.091 13.1765C127.091 12.5049 126.939 11.9704 126.634 11.5729C126.332 11.1754 125.875 10.9767 125.261 10.9767C124.847 10.9767 124.504 11.0709 124.233 11.2594C123.966 11.4444 123.766 11.7031 123.632 12.0355C123.502 12.3644 123.437 12.7447 123.437 13.1765C123.437 13.8446 123.591 14.3809 123.899 14.7852C124.208 15.1861 124.662 15.3865 125.261 15.3865ZM129.027 15.957V10.4062H129.705V11.7425L129.571 11.5677C129.633 11.4033 129.714 11.2525 129.813 11.1155C129.912 10.975 130.02 10.8602 130.137 10.7711C130.281 10.6443 130.449 10.5484 130.64 10.4833C130.832 10.4147 131.026 10.3753 131.221 10.3651C131.417 10.3514 131.595 10.3651 131.756 10.4062V11.1155C131.554 11.0641 131.333 11.0521 131.093 11.0795C130.853 11.1069 130.632 11.2028 130.43 11.3673C130.245 11.5112 130.106 11.6842 130.013 11.8864C129.921 12.0851 129.859 12.2976 129.828 12.5237C129.798 12.7464 129.782 12.9675 129.782 13.1867V15.957H129.027Z" fill="#111528"/>
<path d="M14.2915 16.1112C13.7707 16.1112 13.3013 16.0204 12.8832 15.8388C12.4652 15.6572 12.1089 15.3985 11.8142 15.0627C11.5229 14.7269 11.3002 14.3226 11.146 13.8498C10.9918 13.3735 10.9147 12.8424 10.9147 12.2565C10.9147 11.4821 11.0484 10.8071 11.3156 10.2314C11.5863 9.65236 11.9735 9.20349 12.4772 8.88483C12.9809 8.56617 13.5857 8.40684 14.2915 8.40684C15.0796 8.40684 15.7203 8.59187 16.2137 8.96193C16.7106 9.32856 17.0566 9.82197 17.252 10.4422L16.4913 10.6272C16.3302 10.1749 16.0647 9.8134 15.6946 9.54271C15.328 9.27202 14.8706 9.13668 14.3223 9.13668C13.7433 9.13325 13.2619 9.26346 12.8781 9.52729C12.4943 9.7877 12.2048 10.1543 12.0095 10.6272C11.8176 11.0966 11.7199 11.6397 11.7165 12.2565C11.7131 12.8732 11.8073 13.4163 11.9992 13.8857C12.1945 14.3517 12.4858 14.7184 12.873 14.9856C13.2601 15.2495 13.7433 15.3831 14.3223 15.3865C14.8534 15.3865 15.292 15.2837 15.6381 15.0781C15.9842 14.8726 16.2463 14.5779 16.4245 14.1941C16.6061 13.8104 16.7089 13.3564 16.7328 12.8321H15.0265V12.1845H17.5244C17.5346 12.2633 17.5398 12.3473 17.5398 12.4364C17.5432 12.522 17.5449 12.5837 17.5449 12.6214C17.5449 13.2895 17.425 13.8875 17.1851 14.4151C16.9453 14.9394 16.5838 15.354 16.1007 15.6589C15.621 15.9605 15.0179 16.1112 14.2915 16.1112ZM20.9225 16.1112C20.3811 16.1112 19.9117 15.9913 19.5142 15.7514C19.1202 15.5116 18.8135 15.1741 18.5942 14.7389C18.3749 14.3038 18.2653 13.7932 18.2653 13.2073C18.2653 12.6008 18.3732 12.0766 18.5891 11.6346C18.8049 11.1925 19.1082 10.8516 19.4988 10.6118C19.8928 10.3719 20.3571 10.252 20.8917 10.252C21.4399 10.252 21.9076 10.3788 22.2948 10.6323C22.682 10.8825 22.9749 11.2422 23.1737 11.7117C23.3724 12.1811 23.4632 12.7413 23.4461 13.3923H22.6751V13.1251C22.6614 12.4055 22.5055 11.8624 22.2074 11.4958C21.9127 11.1292 21.481 10.9458 20.9122 10.9458C20.316 10.9458 19.8586 11.1394 19.5399 11.5266C19.2247 11.9138 19.0671 12.4655 19.0671 13.1816C19.0671 13.8806 19.2247 14.4237 19.5399 14.8109C19.8586 15.1946 20.3092 15.3865 20.8917 15.3865C21.2891 15.3865 21.6352 15.2957 21.9299 15.1141C22.228 14.9291 22.4627 14.6635 22.634 14.3175L23.3381 14.5899C23.1188 15.073 22.795 15.4482 22.3667 15.7155C21.9419 15.9793 21.4604 16.1112 20.9225 16.1112ZM18.7998 13.3923V12.7602H23.04V13.3923H18.7998ZM28.4451 15.957V13.1251C28.4451 12.8167 28.4159 12.534 28.3577 12.277C28.2994 12.0166 28.2052 11.7905 28.075 11.5986C27.9482 11.4033 27.782 11.2525 27.5764 11.1463C27.3743 11.0401 27.1276 10.987 26.8363 10.987C26.5691 10.987 26.3326 11.0332 26.1271 11.1257C25.9249 11.2182 25.7536 11.3519 25.6131 11.5266C25.476 11.698 25.3715 11.907 25.2996 12.1537C25.2276 12.4004 25.1916 12.6813 25.1916 12.9966L24.6571 12.8784C24.6571 12.3096 24.7565 11.8316 24.9552 11.4444C25.1539 11.0572 25.4281 10.7642 25.7776 10.5655C26.1271 10.3668 26.528 10.2674 26.9802 10.2674C27.3126 10.2674 27.6021 10.3188 27.8489 10.4216C28.099 10.5244 28.3097 10.6632 28.481 10.8379C28.6558 11.0127 28.7963 11.2131 28.9025 11.4393C29.0087 11.662 29.0858 11.9001 29.1338 12.1537C29.1817 12.4038 29.2057 12.6539 29.2057 12.9041V15.957H28.4451ZM24.431 15.957V10.4062H25.1145V11.7733H25.1916V15.957H24.431ZM32.8582 16.1112C32.3168 16.1112 31.8474 15.9913 31.4499 15.7514C31.0559 15.5116 30.7492 15.1741 30.5299 14.7389C30.3106 14.3038 30.201 13.7932 30.201 13.2073C30.201 12.6008 30.3089 12.0766 30.5248 11.6346C30.7406 11.1925 31.0439 10.8516 31.4345 10.6118C31.8285 10.3719 32.2928 10.252 32.8274 10.252C33.3756 10.252 33.8433 10.3788 34.2305 10.6323C34.6177 10.8825 34.9106 11.2422 35.1094 11.7117C35.3081 12.1811 35.3989 12.7413 35.3818 13.3923H34.6108V13.1251C34.5971 12.4055 34.4412 11.8624 34.1431 11.4958C33.8484 11.1292 33.4167 10.9458 32.8479 10.9458C32.2517 10.9458 31.7943 11.1394 31.4756 11.5266C31.1604 11.9138 31.0028 12.4655 31.0028 13.1816C31.0028 13.8806 31.1604 14.4237 31.4756 14.8109C31.7943 15.1946 32.2449 15.3865 32.8274 15.3865C33.2248 15.3865 33.5709 15.2957 33.8656 15.1141C34.1637 14.9291 34.3984 14.6635 34.5697 14.3175L35.2738 14.5899C35.0545 15.073 34.7307 15.4482 34.3024 15.7155C33.8776 15.9793 33.3961 16.1112 32.8582 16.1112ZM30.7355 13.3923V12.7602H34.9757V13.3923H30.7355ZM36.5224 15.957V10.4062H37.2008V11.7425L37.0672 11.5677C37.1289 11.4033 37.2094 11.2525 37.3087 11.1155C37.4081 10.975 37.516 10.8602 37.6325 10.7711C37.7765 10.6443 37.9444 10.5484 38.1362 10.4833C38.3281 10.4147 38.5217 10.3753 38.717 10.3651C38.9123 10.3514 39.0905 10.3651 39.2515 10.4062V11.1155C39.0494 11.0641 38.8284 11.0521 38.5885 11.0795C38.3487 11.1069 38.1277 11.2028 37.9255 11.3673C37.7405 11.5112 37.6017 11.6842 37.5092 11.8864C37.4167 12.0851 37.355 12.2976 37.3242 12.5237C37.2933 12.7464 37.2779 12.9675 37.2779 13.1867V15.957H36.5224ZM41.6039 16.1112C41.1859 16.1112 40.8347 16.0358 40.5503 15.8851C40.2693 15.7343 40.0586 15.5339 39.9181 15.2837C39.7776 15.0336 39.7074 14.7612 39.7074 14.4665C39.7074 14.165 39.7673 13.908 39.8873 13.6956C40.0106 13.4797 40.1768 13.3032 40.3858 13.1662C40.5983 13.0291 40.8432 12.9246 41.1208 12.8527C41.4018 12.7841 41.7118 12.7242 42.0511 12.6728C42.3937 12.618 42.7278 12.5717 43.0533 12.534C43.3822 12.4929 43.6701 12.4535 43.9168 12.4158L43.6495 12.5803C43.6598 12.032 43.5536 11.626 43.3308 11.3622C43.1081 11.0983 42.7209 10.9664 42.1693 10.9664C41.7889 10.9664 41.4669 11.0521 41.203 11.2234C40.9426 11.3947 40.7593 11.6654 40.6531 12.0355L39.9181 11.8196C40.0449 11.3228 40.3002 10.9373 40.6839 10.6632C41.0677 10.389 41.5662 10.252 42.1796 10.252C42.6867 10.252 43.1167 10.3479 43.4696 10.5398C43.826 10.7283 44.0778 11.0024 44.2252 11.3622C44.2937 11.5232 44.3382 11.7031 44.3588 11.9018C44.3793 12.1006 44.3896 12.3027 44.3896 12.5083V15.957H43.7163V14.5642L43.9116 14.6464C43.7232 15.1227 43.4302 15.4859 43.0327 15.736C42.6353 15.9862 42.159 16.1112 41.6039 16.1112ZM41.6913 15.4585C42.0442 15.4585 42.3526 15.3951 42.6164 15.2683C42.8803 15.1415 43.0927 14.9685 43.2538 14.7492C43.4148 14.5265 43.5193 14.2764 43.5673 13.9988C43.6084 13.8206 43.6307 13.6253 43.6341 13.4129C43.6375 13.197 43.6392 13.036 43.6392 12.9298L43.9271 13.0788C43.6701 13.1131 43.3908 13.1473 43.0893 13.1816C42.7912 13.2159 42.4965 13.2553 42.2053 13.2998C41.9174 13.3444 41.657 13.3975 41.424 13.4591C41.2664 13.5037 41.1139 13.5671 40.9666 13.6493C40.8193 13.7281 40.6976 13.8343 40.6017 13.968C40.5092 14.1016 40.4629 14.2678 40.4629 14.4665C40.4629 14.6276 40.5023 14.7835 40.5811 14.9342C40.6634 15.085 40.7936 15.2101 40.9717 15.3094C41.1533 15.4088 41.3932 15.4585 41.6913 15.4585ZM48.7498 15.957C48.4379 16.0221 48.1296 16.0478 47.8246 16.0341C47.5231 16.0204 47.2524 15.9553 47.0125 15.8388C46.7761 15.7223 46.5962 15.5407 46.4729 15.294C46.3735 15.0884 46.3187 14.8811 46.3084 14.6721C46.3016 14.4597 46.2981 14.2181 46.2981 13.9474V8.86427H47.0485V13.9166C47.0485 14.1496 47.0502 14.3449 47.0537 14.5025C47.0605 14.6567 47.0965 14.7938 47.1616 14.9137C47.2849 15.1432 47.4803 15.2803 47.7475 15.3249C48.0182 15.3694 48.3523 15.3591 48.7498 15.294V15.957ZM45.1109 11.0538V10.4062H48.7498V11.0538H45.1109ZM51.9914 16.1112C51.4501 16.1112 50.9806 15.9913 50.5832 15.7514C50.1891 15.5116 49.8825 15.1741 49.6632 14.7389C49.4439 14.3038 49.3342 13.7932 49.3342 13.2073C49.3342 12.6008 49.4422 12.0766 49.658 11.6346C49.8739 11.1925 50.1771 10.8516 50.5678 10.6118C50.9618 10.3719 51.4261 10.252 51.9606 10.252C52.5088 10.252 52.9766 10.3788 53.3637 10.6323C53.7509 10.8825 54.0439 11.2422 54.2426 11.7117C54.4414 12.1811 54.5322 12.7413 54.515 13.3923H53.7441V13.1251C53.7304 12.4055 53.5745 11.8624 53.2764 11.4958C52.9817 11.1292 52.55 10.9458 51.9812 10.9458C51.385 10.9458 50.9275 11.1394 50.6089 11.5266C50.2936 11.9138 50.136 12.4655 50.136 13.1816C50.136 13.8806 50.2936 14.4237 50.6089 14.8109C50.9275 15.1946 51.3781 15.3865 51.9606 15.3865C52.3581 15.3865 52.7041 15.2957 52.9988 15.1141C53.2969 14.9291 53.5316 14.6635 53.703 14.3175L54.4071 14.5899C54.1878 15.073 53.864 15.4482 53.4357 15.7155C53.0108 15.9793 52.5294 16.1112 51.9914 16.1112ZM49.8688 13.3923V12.7602H54.109V13.3923H49.8688Z" fill="#22A753"/>
<path d="M134.789 15.957V8.55589H137.646C137.718 8.55589 137.799 8.55932 137.888 8.56617C137.98 8.5696 138.073 8.57988 138.165 8.59701C138.553 8.65526 138.88 8.79061 139.147 9.00305C139.418 9.21206 139.622 9.4759 139.759 9.79456C139.899 10.1132 139.969 10.4661 139.969 10.8533C139.969 11.4118 139.822 11.8967 139.527 12.3079C139.233 12.719 138.811 12.9777 138.263 13.084L138.001 13.1456H135.544V15.957H134.789ZM139.27 15.957L137.811 12.9452L138.535 12.6676L140.139 15.957H139.27ZM135.544 12.4261H137.626C137.687 12.4261 137.759 12.4226 137.842 12.4158C137.924 12.4089 138.004 12.3969 138.083 12.3798C138.337 12.325 138.544 12.2205 138.705 12.0663C138.87 11.9121 138.991 11.7288 139.07 11.5163C139.152 11.3039 139.193 11.0829 139.193 10.8533C139.193 10.6238 139.152 10.4028 139.07 10.1903C138.991 9.97445 138.87 9.78942 138.705 9.63523C138.544 9.48104 138.337 9.37653 138.083 9.32171C138.004 9.30457 137.924 9.29429 137.842 9.29087C137.759 9.28402 137.687 9.28059 137.626 9.28059H135.544V12.4261ZM142.862 16.1112C142.444 16.1112 142.092 16.0358 141.808 15.8851C141.527 15.7343 141.316 15.5339 141.176 15.2837C141.035 15.0336 140.965 14.7612 140.965 14.4665C140.965 14.165 141.025 13.908 141.145 13.6956C141.268 13.4797 141.434 13.3032 141.644 13.1662C141.856 13.0291 142.101 12.9246 142.378 12.8527C142.659 12.7841 142.97 12.7242 143.309 12.6728C143.651 12.618 143.985 12.5717 144.311 12.534C144.64 12.4929 144.928 12.4535 145.174 12.4158L144.907 12.5803C144.917 12.032 144.811 11.626 144.589 11.3622C144.366 11.0983 143.979 10.9664 143.427 10.9664C143.047 10.9664 142.725 11.0521 142.461 11.2234C142.2 11.3947 142.017 11.6654 141.911 12.0355L141.176 11.8196C141.303 11.3228 141.558 10.9373 141.942 10.6632C142.325 10.389 142.824 10.252 143.437 10.252C143.944 10.252 144.374 10.3479 144.727 10.5398C145.084 10.7283 145.336 11.0024 145.483 11.3622C145.551 11.5232 145.596 11.7031 145.616 11.9018C145.637 12.1006 145.647 12.3027 145.647 12.5083V15.957H144.974V14.5642L145.169 14.6464C144.981 15.1227 144.688 15.4859 144.29 15.736C143.893 15.9862 143.417 16.1112 142.862 16.1112ZM142.949 15.4585C143.302 15.4585 143.61 15.3951 143.874 15.2683C144.138 15.1415 144.35 14.9685 144.511 14.7492C144.672 14.5265 144.777 14.2764 144.825 13.9988C144.866 13.8206 144.888 13.6253 144.892 13.4129C144.895 13.197 144.897 13.036 144.897 12.9298L145.185 13.0788C144.928 13.1131 144.649 13.1473 144.347 13.1816C144.049 13.2159 143.754 13.2553 143.463 13.2998C143.175 13.3444 142.915 13.3975 142.682 13.4591C142.524 13.5037 142.372 13.5671 142.224 13.6493C142.077 13.7281 141.955 13.8343 141.859 13.968C141.767 14.1016 141.721 14.2678 141.721 14.4665C141.721 14.6276 141.76 14.7835 141.839 14.9342C141.921 15.085 142.051 15.2101 142.229 15.3094C142.411 15.4088 142.651 15.4585 142.949 15.4585ZM147.466 18.4241L148.54 15.5099L148.555 16.3733L146.124 10.4062H146.926L148.92 15.3968H148.591L150.431 10.4062H151.202L148.221 18.4241H147.466ZM153.056 15.957V9.995C153.056 9.85109 153.063 9.7089 153.077 9.56841C153.094 9.42793 153.127 9.29429 153.175 9.16752C153.223 9.03731 153.298 8.91738 153.401 8.80774C153.514 8.68439 153.637 8.5953 153.771 8.54047C153.904 8.48223 154.043 8.44453 154.187 8.4274C154.334 8.41027 154.478 8.4017 154.619 8.4017H155.328V9.03902H154.67C154.382 9.03902 154.167 9.10927 154.023 9.24975C153.882 9.39024 153.812 9.61124 153.812 9.91277V15.957H153.056ZM152.095 11.0538V10.4062H155.328V11.0538H152.095ZM158.268 16.1112C157.716 16.1112 157.245 15.9862 156.854 15.736C156.464 15.4859 156.164 15.1398 155.955 14.6978C155.746 14.2558 155.641 13.7487 155.641 13.1765C155.641 12.594 155.747 12.0834 155.96 11.6448C156.172 11.2063 156.474 10.8653 156.864 10.622C157.259 10.3753 157.726 10.252 158.268 10.252C158.823 10.252 159.296 10.3771 159.686 10.6272C160.08 10.8739 160.38 11.2182 160.586 11.6603C160.795 12.0988 160.899 12.6042 160.899 13.1765C160.899 13.759 160.795 14.2712 160.586 14.7132C160.377 15.1518 160.075 15.4945 159.681 15.7412C159.287 15.9879 158.816 16.1112 158.268 16.1112ZM158.268 15.3865C158.884 15.3865 159.344 15.1827 159.645 14.7749C159.947 14.3637 160.097 13.8309 160.097 13.1765C160.097 12.5049 159.945 11.9704 159.64 11.5729C159.338 11.1754 158.881 10.9767 158.268 10.9767C157.853 10.9767 157.51 11.0709 157.24 11.2594C156.972 11.4444 156.772 11.7031 156.638 12.0355C156.508 12.3644 156.443 12.7447 156.443 13.1765C156.443 13.8446 156.597 14.3809 156.906 14.7852C157.214 15.1861 157.668 15.3865 158.268 15.3865ZM162.033 15.957V10.4062H162.711V11.7425L162.578 11.5677C162.639 11.4033 162.72 11.2525 162.819 11.1155C162.919 10.975 163.027 10.8602 163.143 10.7711C163.287 10.6443 163.455 10.5484 163.647 10.4833C163.839 10.4147 164.032 10.3753 164.228 10.3651C164.423 10.3514 164.601 10.3651 164.762 10.4062V11.1155C164.56 11.0641 164.339 11.0521 164.099 11.0795C163.859 11.1069 163.638 11.2028 163.436 11.3673C163.251 11.5112 163.112 11.6842 163.02 11.8864C162.927 12.0851 162.866 12.2976 162.835 12.5237C162.804 12.7464 162.788 12.9675 162.788 13.1867V15.957H162.033ZM167.79 16.1112C167.273 16.1112 166.831 15.9827 166.464 15.7257C166.098 15.4653 165.817 15.1141 165.621 14.6721C165.426 14.2301 165.328 13.7316 165.328 13.1765C165.328 12.6248 165.424 12.128 165.616 11.686C165.811 11.2439 166.091 10.8944 166.454 10.6375C166.817 10.3805 167.252 10.252 167.759 10.252C168.28 10.252 168.719 10.3788 169.075 10.6323C169.432 10.8859 169.7 11.2337 169.882 11.6757C170.067 12.1143 170.16 12.6145 170.16 13.1765C170.16 13.7281 170.069 14.2267 169.887 14.6721C169.706 15.1141 169.438 15.4653 169.085 15.7257C168.733 15.9827 168.301 16.1112 167.79 16.1112ZM167.867 15.4071C168.261 15.4071 168.587 15.3111 168.844 15.1193C169.101 14.9274 169.293 14.6635 169.42 14.3278C169.546 13.9885 169.61 13.6048 169.61 13.1765C169.61 12.7413 169.546 12.3575 169.42 12.0252C169.293 11.6894 169.101 11.4273 168.844 11.2388C168.59 11.0504 168.27 10.9561 167.883 10.9561C167.485 10.9561 167.156 11.0538 166.896 11.2491C166.636 11.4444 166.442 11.7099 166.315 12.0457C166.192 12.3815 166.13 12.7584 166.13 13.1765C166.13 13.5979 166.194 13.9783 166.32 14.3175C166.45 14.6533 166.644 14.9188 166.901 15.1141C167.158 15.3094 167.48 15.4071 167.867 15.4071ZM169.61 15.957V11.7785H169.527V8.55589H170.288V15.957H169.61ZM9.91049 31.1112C9.39309 31.1112 8.9271 31.0256 8.5125 30.8542C8.10132 30.6795 7.76039 30.4328 7.4897 30.1141C7.22244 29.7955 7.04769 29.4168 6.96545 28.9783L7.7364 28.8498C7.85976 29.3295 8.12017 29.7064 8.51764 29.9805C8.9151 30.2512 9.38967 30.3865 9.94133 30.3865C10.3045 30.3865 10.63 30.33 10.9179 30.2169C11.2057 30.1004 11.4318 29.9359 11.5963 29.7235C11.7608 29.5111 11.843 29.2592 11.843 28.968C11.843 28.7761 11.8087 28.6133 11.7402 28.4797C11.6717 28.3426 11.5809 28.2296 11.4678 28.1405C11.3547 28.0514 11.2314 27.9777 11.0978 27.9195C10.9641 27.8578 10.8339 27.8081 10.7071 27.7704L8.83116 27.2102C8.60501 27.1451 8.396 27.0629 8.20411 26.9635C8.01223 26.8607 7.84434 26.7391 7.70043 26.5986C7.55994 26.4547 7.4503 26.2868 7.37149 26.0949C7.29268 25.903 7.25327 25.6837 7.25327 25.437C7.25327 25.019 7.36292 24.6575 7.58221 24.3525C7.80151 24.0476 8.10132 23.8129 8.48166 23.6484C8.86199 23.4839 9.29544 23.4034 9.782 23.4068C10.2754 23.4068 10.7157 23.4942 11.1029 23.669C11.4935 23.8437 11.8156 24.0938 12.0692 24.4194C12.3227 24.7414 12.4906 25.1235 12.5728 25.5655L11.7813 25.7094C11.7299 25.3873 11.6117 25.1081 11.4267 24.8717C11.2417 24.6352 11.0052 24.4536 10.7174 24.3268C10.433 24.1966 10.1195 24.1298 9.77686 24.1264C9.44449 24.1264 9.1481 24.1829 8.88769 24.296C8.63071 24.4057 8.42683 24.5564 8.27607 24.7483C8.12531 24.9402 8.04992 25.1595 8.04992 25.4062C8.04992 25.6563 8.11845 25.8568 8.25551 26.0075C8.396 26.1583 8.56732 26.2765 8.76948 26.3622C8.97507 26.4478 9.1738 26.5181 9.36568 26.5729L10.8151 26.9995C10.9658 27.0406 11.1423 27.1006 11.3445 27.1794C11.55 27.2547 11.7488 27.3644 11.9407 27.5083C12.136 27.6488 12.297 27.8338 12.4238 28.0634C12.5506 28.293 12.614 28.5842 12.614 28.9371C12.614 29.2798 12.5454 29.5865 12.4084 29.8571C12.2747 30.1278 12.0846 30.3557 11.8379 30.5407C11.5946 30.7257 11.3085 30.8662 10.9795 30.9622C10.654 31.0615 10.2977 31.1112 9.91049 31.1112ZM16.697 30.957C16.3852 31.0221 16.0768 31.0478 15.7719 31.0341C15.4704 31.0204 15.1997 30.9553 14.9598 30.8388C14.7234 30.7223 14.5435 30.5407 14.4202 30.294C14.3208 30.0884 14.266 29.8811 14.2557 29.6721C14.2488 29.4597 14.2454 29.2181 14.2454 28.9474V23.8643H14.9958V28.9166C14.9958 29.1496 14.9975 29.3449 15.0009 29.5025C15.0078 29.6567 15.0438 29.7938 15.1089 29.9137C15.2322 30.1432 15.4275 30.2803 15.6948 30.3249C15.9655 30.3694 16.2996 30.3591 16.697 30.294V30.957ZM13.0581 26.0538V25.4062H16.697V26.0538H13.0581ZM19.9387 31.1112C19.3973 31.1112 18.9279 30.9913 18.5305 30.7514C18.1364 30.5116 17.8297 30.1741 17.6104 29.7389C17.3912 29.3038 17.2815 28.7932 17.2815 28.2073C17.2815 27.6008 17.3894 27.0766 17.6053 26.6346C17.8212 26.1925 18.1244 25.8516 18.515 25.6118C18.9091 25.3719 19.3734 25.252 19.9079 25.252C20.4561 25.252 20.9238 25.3788 21.311 25.6323C21.6982 25.8825 21.9912 26.2422 22.1899 26.7117C22.3886 27.1811 22.4794 27.7413 22.4623 28.3923H21.6914V28.1251C21.6776 27.4055 21.5217 26.8624 21.2236 26.4958C20.929 26.1292 20.4972 25.9458 19.9284 25.9458C19.3322 25.9458 18.8748 26.1394 18.5562 26.5266C18.2409 26.9138 18.0833 27.4655 18.0833 28.1816C18.0833 28.8806 18.2409 29.4237 18.5562 29.8109C18.8748 30.1946 19.3254 30.3865 19.9079 30.3865C20.3054 30.3865 20.6514 30.2957 20.9461 30.1141C21.2442 29.9291 21.4789 29.6635 21.6502 29.3175L22.3544 29.5899C22.1351 30.073 21.8113 30.4482 21.383 30.7155C20.9581 30.9793 20.4767 31.1112 19.9387 31.1112ZM17.816 28.3923V27.7602H22.0563V28.3923H17.816ZM25.9517 31.1112C25.4104 31.1112 24.9409 30.9913 24.5435 30.7514C24.1494 30.5116 23.8428 30.1741 23.6235 29.7389C23.4042 29.3038 23.2945 28.7932 23.2945 28.2073C23.2945 27.6008 23.4025 27.0766 23.6183 26.6346C23.8342 26.1925 24.1374 25.8516 24.5281 25.6118C24.9221 25.3719 25.3864 25.252 25.9209 25.252C26.4691 25.252 26.9369 25.3788 27.324 25.6323C27.7112 25.8825 28.0042 26.2422 28.2029 26.7117C28.4017 27.1811 28.4925 27.7413 28.4753 28.3923H27.7044V28.1251C27.6907 27.4055 27.5348 26.8624 27.2367 26.4958C26.942 26.1292 26.5103 25.9458 25.9415 25.9458C25.3453 25.9458 24.8878 26.1394 24.5692 26.5266C24.2539 26.9138 24.0963 27.4655 24.0963 28.1816C24.0963 28.8806 24.2539 29.4237 24.5692 29.8109C24.8878 30.1946 25.3384 30.3865 25.9209 30.3865C26.3184 30.3865 26.6644 30.2957 26.9591 30.1141C27.2572 29.9291 27.4919 29.6635 27.6633 29.3175L28.3674 29.5899C28.1481 30.073 27.8243 30.4482 27.396 30.7155C26.9711 30.9793 26.4897 31.1112 25.9517 31.1112ZM23.8291 28.3923V27.7602H28.0693V28.3923H23.8291ZM29.7187 30.957V23.4017H30.4743V30.957H29.7187ZM34.364 31.1112C33.8226 31.1112 33.3532 30.9913 32.9557 30.7514C32.5616 30.5116 32.255 30.1741 32.0357 29.7389C31.8164 29.3038 31.7067 28.7932 31.7067 28.2073C31.7067 27.6008 31.8147 27.0766 32.0305 26.6346C32.2464 26.1925 32.5496 25.8516 32.9403 25.6118C33.3343 25.3719 33.7986 25.252 34.3331 25.252C34.8813 25.252 35.3491 25.3788 35.7362 25.6323C36.1234 25.8825 36.4164 26.2422 36.6151 26.7117C36.8139 27.1811 36.9047 27.7413 36.8875 28.3923H36.1166V28.1251C36.1029 27.4055 35.947 26.8624 35.6489 26.4958C35.3542 26.1292 34.9225 25.9458 34.3537 25.9458C33.7575 25.9458 33.3 26.1394 32.9814 26.5266C32.6661 26.9138 32.5085 27.4655 32.5085 28.1816C32.5085 28.8806 32.6661 29.4237 32.9814 29.8109C33.3 30.1946 33.7506 30.3865 34.3331 30.3865C34.7306 30.3865 35.0767 30.2957 35.3713 30.1141C35.6694 29.9291 35.9041 29.6635 36.0755 29.3175L36.7796 29.5899C36.5603 30.073 36.2365 30.4482 35.8082 30.7155C35.3833 30.9793 34.9019 31.1112 34.364 31.1112ZM32.2413 28.3923V27.7602H36.4815V28.3923H32.2413ZM40.636 30.957V24.995C40.636 24.8511 40.6428 24.7089 40.6565 24.5684C40.6737 24.4279 40.7062 24.2943 40.7542 24.1675C40.8022 24.0373 40.8775 23.9174 40.9803 23.8077C41.0934 23.6844 41.2168 23.5953 41.3504 23.5405C41.484 23.4822 41.6228 23.4445 41.7667 23.4274C41.914 23.4103 42.0579 23.4017 42.1984 23.4017H42.9077V24.039H42.2498C41.962 24.039 41.7461 24.1093 41.6022 24.2498C41.4617 24.3902 41.3915 24.6112 41.3915 24.9128V30.957H40.636ZM39.6748 26.0538V25.4062H42.9077V26.0538H39.6748ZM45.8472 31.1112C45.2955 31.1112 44.8244 30.9862 44.4338 30.736C44.0432 30.4859 43.7434 30.1398 43.5343 29.6978C43.3253 29.2558 43.2208 28.7487 43.2208 28.1765C43.2208 27.594 43.327 27.0834 43.5395 26.6448C43.7519 26.2063 44.0535 25.8653 44.4441 25.622C44.8381 25.3753 45.3058 25.252 45.8472 25.252C46.4023 25.252 46.8751 25.3771 47.2658 25.6272C47.6598 25.8739 47.9596 26.2182 48.1652 26.6603C48.3742 27.0988 48.4787 27.6042 48.4787 28.1765C48.4787 28.759 48.3742 29.2712 48.1652 29.7132C47.9562 30.1518 47.6547 30.4945 47.2606 30.7412C46.8666 30.9879 46.3954 31.1112 45.8472 31.1112ZM45.8472 30.3865C46.464 30.3865 46.9231 30.1827 47.2246 29.7749C47.5262 29.3637 47.6769 28.8309 47.6769 28.1765C47.6769 27.5049 47.5244 26.9704 47.2195 26.5729C46.918 26.1754 46.4605 25.9767 45.8472 25.9767C45.4326 25.9767 45.09 26.0709 44.8193 26.2594C44.552 26.4444 44.3516 26.7031 44.2179 27.0355C44.0877 27.3644 44.0226 27.7447 44.0226 28.1765C44.0226 28.8446 44.1768 29.3809 44.4852 29.7852C44.7936 30.1861 45.2476 30.3865 45.8472 30.3865ZM49.6125 30.957V25.4062H50.2909V26.7425L50.1573 26.5677C50.219 26.4033 50.2995 26.2525 50.3989 26.1155C50.4982 25.975 50.6062 25.8602 50.7227 25.7711C50.8666 25.6443 51.0345 25.5484 51.2264 25.4833C51.4182 25.4147 51.6118 25.3753 51.8071 25.3651C52.0024 25.3514 52.1806 25.3651 52.3417 25.4062V26.1155C52.1395 26.0641 51.9185 26.0521 51.6786 26.0795C51.4388 26.1069 51.2178 26.2028 51.0156 26.3673C50.8306 26.5112 50.6918 26.6842 50.5993 26.8864C50.5068 27.0851 50.4451 27.2976 50.4143 27.5237C50.3834 27.7464 50.368 27.9675 50.368 28.1867V30.957H49.6125ZM57.3122 31.9798V30.7617H58.5509V31.9798H57.3122ZM57.3122 23.7563V22.5382H58.5509V23.7563H57.3122ZM57.9598 31.1112C57.439 31.1112 56.973 31.0153 56.5618 30.8234C56.1506 30.6315 55.8131 30.3608 55.5493 30.0113C55.2889 29.6618 55.1227 29.2472 55.0508 28.7675L56.274 28.5722C56.3699 28.9937 56.5755 29.3295 56.8908 29.5796C57.2094 29.8263 57.5898 29.9497 58.0318 29.9497C58.4567 29.9497 58.8061 29.8503 59.0803 29.6516C59.3544 29.4494 59.4914 29.1941 59.4914 28.8857C59.4914 28.6699 59.4263 28.4951 59.2961 28.3615C59.1659 28.2244 58.9569 28.1114 58.6691 28.0223L56.8856 27.4672C55.8474 27.1451 55.3283 26.5146 55.3283 25.5758C55.3283 25.1372 55.4328 24.7552 55.6418 24.4296C55.8543 24.1007 56.1524 23.8489 56.5361 23.6741C56.9199 23.4959 57.3722 23.4086 57.893 23.412C58.3761 23.4154 58.8061 23.5028 59.1831 23.6741C59.5634 23.8454 59.8786 24.0921 60.1288 24.4142C60.3823 24.7363 60.5622 25.1235 60.6684 25.5758L59.3989 25.8071C59.351 25.5638 59.2567 25.3496 59.1162 25.1646C58.9758 24.9796 58.7993 24.8357 58.5869 24.7329C58.3744 24.6301 58.138 24.5753 57.8776 24.5684C57.6275 24.565 57.403 24.6044 57.2043 24.6866C57.0055 24.7654 56.8479 24.8785 56.7314 25.0258C56.6149 25.1698 56.5567 25.3325 56.5567 25.5141C56.5567 25.7163 56.6372 25.8893 56.7982 26.0332C56.9627 26.1771 57.2214 26.3005 57.5743 26.4033L58.9055 26.7888C59.5463 26.9738 60.0071 27.2256 60.2881 27.5443C60.5725 27.8595 60.7147 28.2793 60.7147 28.8035C60.7147 29.2627 60.5999 29.6653 60.3703 30.0113C60.1408 30.3574 59.8187 30.6281 59.4041 30.8234C58.9895 31.0153 58.508 31.1112 57.9598 31.1112ZM64.0239 31.1112C63.647 31.1112 63.2958 31.0341 62.9703 30.8799C62.6448 30.7223 62.3638 30.5065 62.1274 30.2323C61.8944 29.9582 61.7265 29.6396 61.6237 29.2764L62.8161 28.9577C62.8641 29.1564 62.9514 29.3278 63.0782 29.4717C63.2084 29.6156 63.3592 29.7269 63.5305 29.8057C63.7053 29.8846 63.8851 29.924 64.0702 29.924C64.31 29.924 64.5293 29.8657 64.7281 29.7492C64.9268 29.6327 65.0844 29.4768 65.2009 29.2815C65.3174 29.0828 65.3757 28.8635 65.3757 28.6236C65.3757 28.3838 65.3157 28.1662 65.1958 27.9709C65.0793 27.7721 64.9216 27.6162 64.7229 27.5032C64.5242 27.3867 64.3066 27.3284 64.0702 27.3284C63.7858 27.3284 63.5494 27.3798 63.3609 27.4826C63.1759 27.5854 63.0337 27.695 62.9343 27.8115L61.8755 27.4723L62.1017 23.5559H66.1209V24.7175H62.7647L63.2273 24.2806L63.0628 27.0046L62.8367 26.7271C63.0285 26.5523 63.2513 26.4221 63.5048 26.3365C63.7584 26.2508 64.0034 26.208 64.2398 26.208C64.7024 26.208 65.1118 26.3142 65.4682 26.5266C65.8279 26.7356 66.1089 27.0218 66.3111 27.385C66.5167 27.7482 66.6195 28.161 66.6195 28.6236C66.6195 29.0862 66.4995 29.5059 66.2597 29.8828C66.0198 30.2563 65.7029 30.5544 65.3088 30.7771C64.9182 30.9999 64.4899 31.1112 64.0239 31.1112ZM70.5147 31.1112C69.9904 31.1112 69.5279 30.9999 69.127 30.7771C68.7261 30.551 68.4126 30.2375 68.1864 29.8366C67.9637 29.4357 67.8523 28.9731 67.8523 28.4489V26.0641C67.8523 25.5398 67.9637 25.0772 68.1864 24.6763C68.4126 24.2754 68.7261 23.9636 69.127 23.7409C69.5279 23.5148 69.9904 23.4017 70.5147 23.4017C71.0389 23.4017 71.4998 23.5148 71.8973 23.7409C72.2982 23.9636 72.6117 24.2754 72.8378 24.6763C73.064 25.0772 73.177 25.5398 73.177 26.0641V28.4489C73.177 28.9731 73.064 29.4357 72.8378 29.8366C72.6117 30.2375 72.2982 30.551 71.8973 30.7771C71.4998 30.9999 71.0389 31.1112 70.5147 31.1112ZM70.5147 29.9342C70.7751 29.9342 71.0115 29.8726 71.224 29.7492C71.4364 29.6224 71.6043 29.4545 71.7277 29.2455C71.851 29.0331 71.9127 28.7967 71.9127 28.5362V25.9715C71.9127 25.7077 71.851 25.4713 71.7277 25.2623C71.6043 25.0498 71.4364 24.8819 71.224 24.7586C71.0115 24.6318 70.7751 24.5684 70.5147 24.5684C70.2543 24.5684 70.0179 24.6318 69.8054 24.7586C69.593 24.8819 69.4251 25.0498 69.3017 25.2623C69.1784 25.4713 69.1167 25.7077 69.1167 25.9715V28.5362C69.1167 28.7967 69.1784 29.0331 69.3017 29.2455C69.4251 29.4545 69.593 29.6224 69.8054 29.7492C70.0179 29.8726 70.2543 29.9342 70.5147 29.9342ZM77.2806 31.1112C76.7563 31.1112 76.2938 30.9999 75.8929 30.7771C75.492 30.551 75.1785 30.2375 74.9523 29.8366C74.7296 29.4357 74.6182 28.9731 74.6182 28.4489V26.0641C74.6182 25.5398 74.7296 25.0772 74.9523 24.6763C75.1785 24.2754 75.492 23.9636 75.8929 23.7409C76.2938 23.5148 76.7563 23.4017 77.2806 23.4017C77.8048 23.4017 78.2657 23.5148 78.6632 23.7409C79.0641 23.9636 79.3776 24.2754 79.6037 24.6763C79.8299 25.0772 79.9429 25.5398 79.9429 26.0641V28.4489C79.9429 28.9731 79.8299 29.4357 79.6037 29.8366C79.3776 30.2375 79.0641 30.551 78.6632 30.7771C78.2657 30.9999 77.8048 31.1112 77.2806 31.1112ZM77.2806 29.9342C77.541 29.9342 77.7774 29.8726 77.9899 29.7492C78.2023 29.6224 78.3702 29.4545 78.4936 29.2455C78.6169 29.0331 78.6786 28.7967 78.6786 28.5362V25.9715C78.6786 25.7077 78.6169 25.4713 78.4936 25.2623C78.3702 25.0498 78.2023 24.8819 77.9899 24.7586C77.7774 24.6318 77.541 24.5684 77.2806 24.5684C77.0202 24.5684 76.7838 24.6318 76.5713 24.7586C76.3589 24.8819 76.191 25.0498 76.0676 25.2623C75.9443 25.4713 75.8826 25.7077 75.8826 25.9715V28.5362C75.8826 28.7967 75.9443 29.0331 76.0676 29.2455C76.191 29.4545 76.3589 29.6224 76.5713 29.7492C76.7838 29.8726 77.0202 29.9342 77.2806 29.9342Z" fill="#111928"/>
<path d="M10.6064 16.5995H54.9361V16.8565H10.6064V16.5995Z" fill="#22A753"/>
<path d="M180.674 49.2575L177.958 44.1778L168.434 49.2695L177.938 67.0484C184.794 68.6948 194.052 64.7374 197.272 63.2014C197.672 63.0108 197.61 62.4137 197.186 62.284C193.969 61.2983 185.312 57.9345 180.674 49.2575Z" fill="#D0FECF"/>
<mask id="mask0_3489_23333" style="mask-type:alpha" maskUnits="userSpaceOnUse" x="180" y="41" width="22" height="33">
<path d="M201.06 64.4841L183.915 73.6495L181.977 70.0238C184.027 66.9363 185.091 63.2961 185.018 59.5846C184.948 56.0203 183.337 52.3724 180.141 46.2758L188.84 41.6257L201.06 64.4841Z" fill="#8B1A1A"/>
</mask>
<g mask="url(#mask0_3489_23333)">
<path d="M180.674 49.2575L177.958 44.1778L168.434 49.2695L177.938 67.0484C184.794 68.6948 194.052 64.7374 197.272 63.2014C197.672 63.0108 197.61 62.4137 197.186 62.284C193.969 61.2983 185.312 57.9345 180.674 49.2575Z" fill="#D0FECF"/>
<path d="M178.153 43.5342L181.093 49.0331C185.641 57.5413 194.145 60.8557 197.325 61.83C198.124 62.0747 198.303 63.2362 197.476 63.6307C195.853 64.4053 192.705 65.791 189.094 66.7767C185.494 67.7593 181.372 68.3618 177.828 67.5107L177.619 67.4605L167.79 49.0743L178.153 43.5342Z" stroke="black" stroke-opacity="0.06" stroke-width="0.9504"/>
</g>
<path d="M151.994 62.1003C151.709 62.1003 151.452 62.0339 151.223 61.9011C150.996 61.7683 150.816 61.5884 150.683 61.3614C150.551 61.1323 150.484 60.8753 150.484 60.5905V58.7916C150.484 58.5068 150.551 58.2509 150.683 58.0239C150.816 57.7947 150.996 57.6138 151.223 57.481C151.452 57.3482 151.709 57.2818 151.994 57.2818C152.279 57.2818 152.535 57.3482 152.762 57.481C152.991 57.6138 153.172 57.7947 153.305 58.0239C153.437 58.2509 153.504 58.5068 153.504 58.7916V60.5905C153.504 60.8753 153.437 61.1323 153.305 61.3614C153.172 61.5884 152.991 61.7683 152.762 61.9011C152.535 62.0339 152.279 62.1003 151.994 62.1003ZM151.994 61.6441C152.185 61.6441 152.358 61.5981 152.514 61.506C152.671 61.4118 152.795 61.2865 152.887 61.1302C152.979 60.9738 153.025 60.8014 153.025 60.613V58.7691C153.025 58.5785 152.979 58.4051 152.887 58.2487C152.795 58.0924 152.671 57.9682 152.514 57.8761C152.358 57.7819 152.185 57.7348 151.994 57.7348C151.803 57.7348 151.63 57.7819 151.474 57.8761C151.317 57.9682 151.193 58.0924 151.101 58.2487C151.009 58.4051 150.963 58.5785 150.963 58.7691V60.613C150.963 60.8014 151.009 60.9738 151.101 61.1302C151.193 61.2865 151.317 61.4118 151.474 61.506C151.63 61.5981 151.803 61.6441 151.994 61.6441ZM155.88 62.1003C155.591 62.1003 155.335 62.0425 155.112 61.9268C154.892 61.8112 154.718 61.6495 154.592 61.4418C154.468 61.2319 154.406 60.9867 154.406 60.7061C154.406 60.4192 154.475 60.1643 154.614 59.9416C154.754 59.7167 154.966 59.5465 155.25 59.4309L155.244 59.6172C155.006 59.5294 154.825 59.3859 154.701 59.1867C154.577 58.9876 154.515 58.767 154.515 58.525C154.515 58.268 154.574 58.0474 154.691 57.8633C154.809 57.6769 154.97 57.5335 155.173 57.4328C155.379 57.3322 155.614 57.2818 155.88 57.2818C156.146 57.2818 156.381 57.3322 156.587 57.4328C156.792 57.5335 156.954 57.6769 157.072 57.8633C157.19 58.0474 157.248 58.268 157.248 58.525C157.248 58.767 157.188 58.9865 157.069 59.1835C156.951 59.3805 156.77 59.5251 156.526 59.6172L156.51 59.4309C156.794 59.5444 157.008 59.7135 157.149 59.9384C157.292 60.1633 157.364 60.4192 157.364 60.7061C157.364 60.9867 157.301 61.2319 157.175 61.4418C157.048 61.6495 156.874 61.8112 156.651 61.9268C156.428 62.0425 156.171 62.1003 155.88 62.1003ZM155.88 61.6473C156.171 61.6473 156.408 61.567 156.59 61.4064C156.772 61.2437 156.863 61.0102 156.863 60.7061C156.863 60.3978 156.773 60.1643 156.593 60.0059C156.413 59.8452 156.176 59.7649 155.88 59.7649C155.584 59.7649 155.348 59.8452 155.17 60.0059C154.992 60.1643 154.903 60.3978 154.903 60.7061C154.903 61.0102 154.993 61.2437 155.173 61.4064C155.353 61.567 155.589 61.6473 155.88 61.6473ZM155.88 59.3088C156.137 59.3088 156.346 59.2435 156.506 59.1128C156.667 58.9801 156.747 58.7841 156.747 58.525C156.747 58.2659 156.667 58.0721 156.506 57.9436C156.346 57.8129 156.137 57.7476 155.88 57.7476C155.623 57.7476 155.414 57.8129 155.254 57.9436C155.095 58.0721 155.016 58.2659 155.016 58.525C155.016 58.7841 155.095 58.9801 155.254 59.1128C155.414 59.2435 155.623 59.3088 155.88 59.3088ZM158.518 61.4899V60.9406H159.067V61.4899H158.518ZM158.521 59.5979V59.0486H159.07V59.5979H158.521ZM160.116 62.0007L160.12 61.5702L162.211 59.6814C162.391 59.5187 162.51 59.3645 162.567 59.2188C162.627 59.0711 162.657 58.9169 162.657 58.7563C162.657 58.5657 162.612 58.3933 162.522 58.2391C162.432 58.0849 162.311 57.9628 162.159 57.8729C162.007 57.7808 161.837 57.7348 161.649 57.7348C161.452 57.7348 161.276 57.7819 161.122 57.8761C160.968 57.9703 160.846 58.0945 160.756 58.2487C160.668 58.4029 160.625 58.571 160.627 58.7531H160.145C160.145 58.4725 160.212 58.2209 160.345 57.9982C160.477 57.7754 160.657 57.6009 160.884 57.4746C161.111 57.3461 161.368 57.2818 161.655 57.2818C161.936 57.2818 162.187 57.3482 162.41 57.481C162.635 57.6116 162.812 57.7894 162.94 58.0142C163.071 58.237 163.136 58.4854 163.136 58.7595C163.136 58.9522 163.112 59.1225 163.065 59.2702C163.02 59.4159 162.949 59.5519 162.85 59.6782C162.754 59.8024 162.631 59.9309 162.481 60.0637L160.624 61.7405L160.55 61.5478H163.136V62.0007H160.116ZM165.884 62.0039V61.1077H163.719V60.658L165.268 57.3782H165.798L164.249 60.658H165.884V59.3088H166.36V60.658H166.864V61.1077H166.36V62.0039H165.884Z" fill="black" fill-opacity="0.5"/>
<path fill-rule="evenodd" clip-rule="evenodd" d="M174.657 56.5137C174.816 56.3161 175.105 56.2841 175.303 56.4424C175.501 56.6014 175.533 56.8918 175.374 57.0898L171.401 62.0391C171.319 62.1409 171.198 62.2038 171.067 62.2109C170.937 62.218 170.809 62.1695 170.717 62.0771L169.111 60.4707C168.932 60.2911 168.932 59.9999 169.111 59.8203C169.291 59.641 169.582 59.6408 169.762 59.8203L171.004 61.0625L174.657 56.5137ZM177.282 56.5127C177.441 56.3152 177.731 56.2847 177.929 56.4434C178.126 56.6024 178.158 56.8919 177.999 57.0898L174.026 62.0391C173.945 62.1408 173.823 62.2036 173.693 62.2109C173.563 62.218 173.435 62.1693 173.343 62.0771L172.7 61.4346C172.52 61.255 172.52 60.9637 172.7 60.7842C172.88 60.6047 173.171 60.6046 173.35 60.7842L173.63 61.0625L177.282 56.5127Z" fill="#007BFC"/>
</svg>
